<svg width="350" height="250" xmlns="http://www.w3.org/2000/svg">
   <path d="m283,13.99448l-252,0c-9.89099,0 -18,7.64735 -18,16.99367l0,144.49706c0,9.33801 8.09993,16.98511 18,16.98511l117,0l0,25.54156l-45,0c-4.96802,0 -9,3.80658 -9,8.4968s4.03198,8.49683 9,8.49683l108,0c4.96802,0 9,-3.80658 9,-8.49683s-4.03198,-8.4968 -9,-8.4968l-45,0l0,-25.54156l117,0c9.89099,0 18,-7.64709 18,-16.98511l0,-144.49706c0,-9.3463 -8.10901,-16.99367 -18,-16.99367zm0,161.49072l-252,0l0,-144.49706l252,0l0,144.49706z" stroke="null"/>
   <path d="m155.79153,35.91699c-6.51001,5.13748 -12.85739,9.22321 -19.76035,12.70207c-0.6828,4.86487 -0.94821,9.66502 -0.97269,14.45229c6.94421,4.31741 13.47296,9.20358 20.01392,13.90594l1.69208,1.21706l-0.82431,2.09622c-2.91095,7.44469 -5.84348,13.19237 -11.10699,19.69595l-1.24506,1.5443l-1.55154,-1.0938c-7.91959,-5.5961 -17.88644,-10.84927 -27.22958,-15.11514l1.63947,-4.86768c8.83609,4.03444 18.03967,9.05508 25.97586,14.42986c3.69775,-4.81834 6.0827,-9.34477 8.33725,-14.81818c-10.43329,-7.53937 -20.68643,-14.99188 -32.34946,-19.78894c-5.52692,5.7034 -9.05585,12.6757 -12.47525,19.8192c1.99924,7.14294 1.58423,14.95435 -1.58417,21.70197c11.66776,-0.16614 23.53586,0.62477 36.18646,2.87456l1.35892,0.2345l0.4292,1.52414c2.12555,7.41327 2.8317,15.24402 1.99945,23.41882l-0.23703,2.36237l-2.03333,-0.05237c-9.72913,-0.24207 -19.2562,-0.59903 -28.38174,0.06555c0.39249,4.46591 -0.55478,8.67743 -1.8551,12.61465c3.22485,7.99603 6.57605,15.63348 11.59814,22.24268c9.91211,-5.33722 17.66837,-8.76593 27.84372,-12.00531c-0.8183,-3.8439 -1.66156,-7.38525 -2.66525,-9.41928c-1.23019,-2.4935 -2.45148,-3.65817 -4.28717,-4.27429c-3.67087,-1.23273 -10.69577,0.64246 -22.31097,5.45044l-1.49942,-4.92929c11.74631,-4.86206 19.14258,-7.53488 25.04639,-5.55298c2.19351,0.7363 4.05508,2.24246 5.53989,4.33142c3.47943,-2.13684 6.82462,-4.70404 10.10016,-7.56345c2.96381,-12.86542 8.95618,-22.81146 16.00201,-31.409c-1.7355,-3.78792 -3.17224,-7.62177 -4.93875,-11.37856l-0.81516,-1.72809l1.2009,-1.39107c5.59012,-6.4803 11.36993,-11.25076 17.26151,-14.70528l2.0163,4.68335c-5.0322,2.95018 -9.96808,7.26003 -14.84177,12.65021c2.98062,6.69888 5.34708,12.74773 9.47668,18.16231c9.00375,-7.59933 17.99957,-14.39793 28.06226,-20.99536c-3.35287,-8.53764 -7.52832,-16.34988 -13.51859,-22.26288c-7.7337,3.74867 -15.01755,4.87216 -22.2428,3.44328c-3.41602,3.71227 -7.22784,6.22818 -11.71008,6.53833c-6.96918,0.48247 -14.58832,-4.40987 -23.81924,-16.15794l1.64709,-1.76369l0.00412,-0.00784l0.0014,0.00169l1.65244,-1.769c8.81497,11.21886 15.30887,14.81259 20.25168,14.47076c4.44662,-0.30818 8.41342,-4.18852 12.41333,-9.91969c-6.92358,-8.91219 -15.41312,-16.79338 -23.4946,-23.66454l-0.00021,-0.00029l0,0zm-49.04126,71.32959c-1.45544,0.00616 -2.9071,0.02747 -4.35727,0.06247c0.40182,7.36508 1.32385,14.36935 3.37497,20.65747c11.01932,-1.63058 22.4104,-1.38962 33.90097,-1.08423c0.36456,-5.95923 -0.06079,-11.6803 -1.45502,-17.14978c-10.93475,-1.83932 -21.27728,-2.52994 -31.46365,-2.48593l0,0z"/>

</svg>