<?xml version="1.0" encoding="UTF-8"?>
<svg version="1.1" xmlns="http://www.w3.org/2000/svg" width="512" height="512">
<path d="M0 0 C0.82335846 -0.00832352 1.64671692 -0.01664703 2.49502563 -0.02522278 C5.20823938 -0.04925854 7.92121269 -0.05808503 10.63452148 -0.06469727 C12.52351452 -0.07366531 14.41250683 -0.08278719 16.30149841 -0.09205627 C20.2565178 -0.10852908 24.21145267 -0.11624383 28.16650391 -0.11914062 C33.23660111 -0.12453651 38.30590616 -0.16227337 43.37577915 -0.20788479 C47.27482522 -0.23760289 51.1736788 -0.24486296 55.07282829 -0.24586678 C56.94237858 -0.25007604 58.81192907 -0.2625386 60.68136787 -0.28338432 C63.29338463 -0.31020329 65.90354147 -0.3055036 68.515625 -0.29296875 C69.28820145 -0.30780304 70.06077789 -0.32263733 70.85676575 -0.33792114 C74.6723555 -0.28570628 76.35589936 -0.00345306 79.20811462 2.61729431 C81.2337168 6.28534076 80.79810906 8.3284187 79.69311523 12.30639648 C78.59063721 13.99328613 78.59063721 13.99328613 76.69311523 15.30639648 C74.17883898 15.60043117 71.90974698 15.71330345 69.39526367 15.69116211 C68.65504471 15.69653488 67.91482574 15.70190765 67.1521759 15.70744324 C65.54474244 15.71722609 63.93725613 15.72016384 62.32979584 15.71708679 C59.78180271 15.71261014 57.23450474 15.72660606 54.68658447 15.7454834 C49.27210619 15.78229489 43.85770021 15.79597069 38.44311523 15.80639648 C32.18139894 15.81848769 25.92002003 15.84014302 19.6584549 15.88639832 C17.15520335 15.89992912 14.65238242 15.89580378 12.14910889 15.89099121 C10.60224875 15.90033819 9.05539331 15.9105086 7.50854492 15.92163086 C6.81841812 15.91548264 6.12829132 15.90933441 5.41725159 15.90299988 C0.41657675 15.96579889 -2.95389063 16.99779927 -7.30688477 19.30639648 C-9.92362361 23.23150475 -9.63080034 26.6158595 -9.64282227 31.17358398 C-9.64947906 32.04532257 -9.65613586 32.91706116 -9.66299438 33.81521606 C-9.67311866 35.65942271 -9.67781147 37.50366598 -9.67749023 39.34790039 C-9.68185796 42.16411023 -9.71816358 44.97874578 -9.75610352 47.79467773 C-9.76197289 49.58764113 -9.76594148 51.38061197 -9.76782227 53.17358398 C-9.7821933 54.01331757 -9.79656433 54.85305115 -9.81137085 55.7182312 C-9.78012208 59.73408201 -9.60757878 61.81512737 -7.46557617 65.31469727 C-4.12846159 68.39365912 -1.36565792 68.4332856 2.99349976 68.44683838 C4.09265213 68.45254852 5.1918045 68.45825867 6.32426453 68.46414185 C7.53057022 68.4652597 8.73687592 68.46637756 9.97973633 68.4675293 C11.24986069 68.4724942 12.51998505 68.47745911 13.82859802 68.48257446 C17.3141816 68.49568979 20.79974593 68.50214161 24.28535032 68.50658512 C26.46320193 68.50951697 28.64104828 68.51362197 30.81889725 68.51808929 C37.6335219 68.53176134 44.44813454 68.54142968 51.26277196 68.54529119 C59.12827799 68.54977274 66.9936103 68.56732624 74.85906351 68.59629178 C80.93983484 68.61790753 87.02055729 68.62799539 93.10136664 68.6293323 C96.73281065 68.63038033 100.3640913 68.63628745 103.99549484 68.65415192 C108.04633888 68.67369247 112.09681915 68.6693441 116.14770508 68.6628418 C117.34996231 68.67205658 118.55221954 68.68127136 119.79090881 68.69076538 C120.89570084 68.68519623 122.00049286 68.67962708 123.13876343 68.67388916 C124.09629705 68.67535572 125.05383068 68.67682228 126.04038048 68.67833328 C129.2428355 68.22932086 131.09338722 67.20613703 133.69311523 65.30639648 C136.30694492 61.38565196 136.03526213 57.99378556 136.06420898 53.43920898 C136.07323746 52.5674704 136.08226593 51.69573181 136.09156799 50.7975769 C136.10607386 48.95338375 136.11495807 47.10913908 136.11865234 45.26489258 C136.13054339 42.44841416 136.17971864 39.63413082 136.23022461 36.81811523 C136.2396897 35.02515717 136.24692432 33.23218565 136.25170898 31.43920898 C136.28100746 30.17960861 136.28100746 30.17960861 136.31089783 28.89456177 C136.2778586 24.59584881 136.08768803 22.82588853 133.40820312 19.2980957 C129.12357473 16.15503317 125.98910246 16.18681538 120.75561523 16.13061523 C119.61350586 16.10676758 118.47139648 16.08291992 117.29467773 16.05834961 C114.89381714 16.0153841 112.49271831 15.98413187 110.09155273 15.96459961 C108.37838867 15.92302734 108.37838867 15.92302734 106.63061523 15.88061523 C105.58776367 15.86603271 104.54491211 15.8514502 103.47045898 15.83642578 C100.00363656 15.17481612 98.80957146 14.08922517 96.69311523 11.30639648 C96.14580219 7.47520515 95.96951343 5.32043583 98.25268555 2.12084961 C101.51616371 -0.30553792 104.32625122 -0.27025573 108.23999023 -0.22485352 C108.97002258 -0.22868042 109.70005493 -0.23250732 110.45220947 -0.2364502 C111.99541605 -0.23916747 113.53866883 -0.23181895 115.08178711 -0.21508789 C117.42205042 -0.19379517 119.75920098 -0.21482747 122.09936523 -0.24047852 C131.09406133 -0.25860194 137.78653961 0.09455724 144.90014648 6.20092773 C145.42995117 6.83385742 145.95975586 7.46678711 146.50561523 8.11889648 C147.04831055 8.7440918 147.59100586 9.36928711 148.15014648 10.01342773 C152.55006134 16.55203537 153.15075252 22.02227495 153.12670898 29.73608398 C153.13195084 30.72585236 153.13719269 31.71562073 153.14259338 32.73538208 C153.14899354 34.82138128 153.1477027 36.90741667 153.13916016 38.9934082 C153.1306597 42.16480611 153.15942531 45.33439532 153.19116211 48.50561523 C153.19277472 50.54077095 153.19219545 52.57592982 153.18920898 54.61108398 C153.20044296 55.54886688 153.21167694 56.48664978 153.22325134 57.45285034 C153.14630903 64.81560639 151.35076086 70.67185372 146.98217773 76.64624023 C146.1584668 77.43708008 146.1584668 77.43708008 145.31811523 78.24389648 C144.77413086 78.78916992 144.23014648 79.33444336 143.66967773 79.89624023 C141.16898122 81.68033399 138.60718823 82.38260913 135.69311523 83.30639648 C135.4957474 101.23208387 135.38009089 119.15641026 135.35889626 137.08316517 C135.34719458 145.40904717 135.30982197 153.7332664 135.2097168 162.05859375 C135.12242208 169.32415532 135.08563344 176.58801828 135.10684335 183.85410136 C135.11635858 187.6941976 135.10239378 191.53063825 135.02769852 195.37009621 C134.69492792 213.43851183 135.78552768 226.65895976 148.87722397 240.31815147 C152.01020295 243.74849444 154.59844754 247.56673413 157.25561523 251.36889648 C158.32783083 252.86122318 159.40180955 254.35228616 160.47827148 255.84155273 C161.27322021 256.94587646 161.27322021 256.94587646 162.08422852 258.07250977 C164.78323652 261.81999432 167.48850408 265.56295494 170.19311523 269.30639648 C171.27647828 270.80637503 172.35981162 272.30637502 173.44311523 273.80639648 C174.24749023 274.92014648 174.24749023 274.92014648 175.06811523 276.05639648 C194.02644857 302.30639648 212.9847819 328.55639648 231.94311523 354.80639648 C232.47976807 355.54921875 233.0164209 356.29204102 233.56933594 357.05737305 C234.64950432 358.55346553 235.72877298 360.05020803 236.80712891 361.54760742 C239.55676855 365.36329825 242.32243183 369.1654837 245.11889648 372.94702148 C261.3297865 394.9422096 273.0776949 417.33246486 268.87060547 445.54321289 C265.9078311 463.40705784 258.36760001 477.40146653 245.69311523 490.30639648 C244.94416992 491.07983398 244.19522461 491.85327148 243.42358398 492.65014648 C231.69467234 504.00949044 214.29265613 512.40522094 197.77814674 512.44061756 C196.80905801 512.44507541 195.83996928 512.44953325 194.84151423 512.45412618 C193.78462661 512.45394182 192.72773898 512.45375745 191.63882446 512.4535675 C190.50990827 512.45724419 189.38099208 512.46092088 188.2178663 512.46470898 C184.42657099 512.47574152 180.6353031 512.47958899 176.84399414 512.48339844 C174.12871059 512.48913262 171.41343114 512.49629777 168.69815063 512.50331116 C160.54288232 512.52305317 152.3876128 512.53314009 144.23232657 512.54203895 C140.38695321 512.54642661 136.54158123 512.55179228 132.69620895 512.55702782 C119.90399016 512.57403981 107.11177221 512.58853152 94.31954384 512.59577656 C91.00152205 512.5976863 87.68350027 512.59960665 84.36547852 512.6015625 C83.1285354 512.60228811 83.1285354 512.60228811 81.86660354 512.60302838 C68.52363472 512.61131947 55.18075581 512.63664091 41.83782621 512.66914318 C28.12263319 512.70227831 14.40748575 512.72023124 0.69225252 512.7234208 C-7.00165294 512.72558021 -14.69542737 512.73424488 -22.38929367 512.75988197 C-28.94528337 512.78167758 -35.50111023 512.78959626 -42.05713205 512.77991519 C-45.39686705 512.77539548 -48.73599652 512.77933776 -52.07572937 512.79667664 C-68.74605024 512.8783434 -83.65441752 512.5082776 -98.68188477 504.49389648 C-99.34978027 504.14697754 -100.01767578 503.80005859 -100.70581055 503.44262695 C-106.0517985 500.59342734 -110.82411883 497.40155484 -115.30688477 493.30639648 C-116.13704102 492.55616211 -116.96719727 491.80592773 -117.82250977 491.03295898 C-133.87359931 475.79884106 -141.93805426 455.23452106 -142.55688477 433.30639648 C-142.3111963 413.94167812 -135.58204585 397.84022906 -124.30688477 382.30639648 C-123.32588143 380.93698762 -122.34545239 379.56716724 -121.36547852 378.19702148 C-118.59636357 374.33789068 -115.80696135 370.49384208 -113.01245117 366.65307617 C-110.26825518 362.87735159 -107.53810195 359.09151399 -104.80688477 355.30639648 C-103.72362279 353.80634495 -102.64028936 352.30634502 -101.55688477 350.80639648 C-100.75250977 349.69264648 -100.75250977 349.69264648 -99.93188477 348.55639648 C-82.05688476 323.80639648 -82.05688476 323.80639648 -80.43115234 321.55541992 C-79.35021285 320.05870948 -78.26932076 318.56196481 -77.18847656 317.06518555 C-74.44390937 313.26457011 -71.6984651 309.4645935 -68.95141602 305.66577148 C-68.39881104 304.90127686 -67.84620605 304.13678223 -67.27685547 303.34912109 C-66.18340152 301.83658227 -65.08949843 300.32436803 -63.99511719 298.8125 C-61.42303064 295.25505738 -58.86480928 291.68923601 -56.33813477 288.09936523 C-55.87753662 287.44677734 -55.41693848 286.79418945 -54.94238281 286.12182617 C-54.08333397 284.90244922 -53.22781383 283.68057582 -52.37646484 282.45581055 C-49.52873416 278.41732118 -49.52873416 278.41732118 -47.30688477 277.30639648 C-40.16552351 276.61529701 -40.16552351 276.61529701 -36.74438477 279.36889648 C-34.82664846 283.28774894 -35.28315694 285.07701244 -36.30688477 289.30639648 C-37.8296719 292.1226595 -39.69419022 294.62838194 -41.61938477 297.18139648 C-42.70441953 298.66678194 -43.789042 300.15246863 -44.87329102 301.63842773 C-45.4354834 302.39978027 -45.99767578 303.16113281 -46.5769043 303.94555664 C-49.4600579 307.88008886 -52.25406248 311.87695959 -55.05688477 315.86889648 C-56.07209995 317.30798776 -57.08768659 318.74681711 -58.10375977 320.18530273 C-59.19430664 321.73024414 -59.19430664 321.73024414 -60.30688477 323.30639648 C-59.35136719 323.43167725 -58.39584961 323.55695801 -57.41137695 323.68603516 C-21.83369989 328.38760614 -21.83369989 328.38760614 -5.30688477 333.30639648 C-4.62400391 333.5068457 -3.94112305 333.70729492 -3.23754883 333.91381836 C0.42258897 334.99502129 4.06529669 336.12139736 7.69311523 337.30639648 C7.95342529 336.61054443 8.21373535 335.91469238 8.48193359 335.19775391 C10.6229446 330.08668894 13.45777809 325.33113092 16.18554688 320.515625 C16.89207624 319.26328035 17.59304856 318.00778231 18.28808594 316.74902344 C26.12757195 302.55198523 35.18130289 290.60925396 51.42749023 285.83764648 C63.52594096 283.00076838 75.00216911 284.55918042 85.91577148 290.56811523 C95.15233908 296.34908933 100.11814026 303.61483311 105.33911133 312.92993164 C106.90428322 315.67702562 108.5234746 318.38824542 110.15014648 321.09936523 C110.74601563 322.09436035 111.34188477 323.08935547 111.95581055 324.11450195 C113.14523717 326.09999898 114.33596939 328.08471452 115.52807617 330.06860352 C116.06851562 330.97852051 116.60895508 331.8884375 117.16577148 332.82592773 C117.65311768 333.6416626 118.14046387 334.45739746 118.64257812 335.29785156 C119.69311523 337.30639648 119.69311523 337.30639648 119.69311523 339.30639648 C156.02621148 337.63929791 156.02621148 337.63929791 187.69311523 323.30639648 C179.98647157 312.33657938 172.20009439 301.4286662 164.33422852 290.57250977 C161.6166335 286.81994849 158.90517051 283.06296229 156.19311523 279.30639648 C155.10981162 277.80637502 154.02647828 276.30637503 152.94311523 274.80639648 C150.77644857 271.80639648 148.6097819 268.80639648 146.44311523 265.80639648 C145.90614014 265.06301025 145.36916504 264.31962402 144.81591797 263.55371094 C143.73945658 262.06298925 142.6634428 260.57194423 141.58789062 259.08056641 C138.77811859 255.18575272 135.95934488 251.29790198 133.12670898 247.41967773 C132.54147461 246.61594727 131.95624023 245.8122168 131.35327148 244.98413086 C130.24028066 243.45597679 129.12458126 241.92979012 128.00561523 240.40600586 C127.49901367 239.70926758 126.99241211 239.0125293 126.47045898 238.29467773 C126.02951904 237.69179932 125.5885791 237.0889209 125.13427734 236.46777344 C124.4209021 235.39789185 124.4209021 235.39789185 123.69311523 234.30639648 C123.01275711 233.39205841 122.33239899 232.47772034 121.63142395 231.53567505 C118.48648956 225.94557209 119.17019246 219.71037633 119.23901367 213.4765625 C119.24014323 212.07653333 119.23950618 210.6765018 119.23724365 209.276474 C119.23609977 205.49167551 119.25955564 201.70738794 119.28753948 197.9227078 C119.31260784 193.9615956 119.3148994 190.00047066 119.31964111 186.03929138 C119.33205499 178.54539332 119.36485491 171.0517297 119.40503907 163.5579347 C119.45818323 153.42654923 119.4797151 143.29509929 119.50304794 133.1636095 C119.54061763 117.21102968 119.62031872 101.25894452 119.69311523 85.30639648 C82.73311523 85.30639648 45.77311523 85.30639648 7.69311523 85.30639648 C7.73952148 95.47581055 7.78592773 105.64522461 7.83374023 116.12280273 C7.85417642 122.56225992 7.87359762 129.00169361 7.88842773 135.44116211 C7.91215999 145.66398141 7.94005558 155.88666881 7.99487305 166.109375 C8.03477777 173.55461682 8.0605568 180.9997516 8.06946921 188.44509739 C8.07467785 192.38635475 8.08689462 196.32730594 8.11603546 200.26846504 C8.14326225 203.98096955 8.15154574 207.69304287 8.14554596 211.40563774 C8.14716454 213.41179794 8.16864926 215.41791159 8.1907959 217.4239502 C8.15940897 224.29898061 7.83986051 228.73231315 3.69311523 234.30639648 C3.19658447 235.05107178 2.70005371 235.79574707 2.18847656 236.56298828 C1.72207764 237.20405518 1.25567871 237.84512207 0.77514648 238.50561523 C0.24703369 239.23458008 -0.2810791 239.96354492 -0.82519531 240.71459961 C-1.37602783 241.46676758 -1.92686035 242.21893555 -2.49438477 242.99389648 C-3.06519775 243.77829102 -3.63601074 244.56268555 -4.22412109 245.37084961 C-17.29269378 263.2922055 -17.29269378 263.2922055 -20.30688477 266.30639648 C-27.23425907 266.97678755 -27.23425907 266.97678755 -30.80688477 264.74389648 C-32.92158921 261.30750175 -32.75049371 259.31515624 -32.30688477 255.30639648 C-30.8594017 252.39178965 -28.96536235 249.88738069 -26.99438477 247.30639648 C-26.51420898 246.6528418 -26.0340332 245.99928711 -25.53930664 245.32592773 C-25.03334961 244.63885742 -24.52739258 243.95178711 -24.00610352 243.24389648 C-23.21792236 242.13698204 -23.21792236 242.13698204 -22.41381836 241.00770569 C-20.30688477 238.30639648 -20.30688477 238.30639648 -17.58483887 235.67112732 C-6.17949396 223.91151855 -7.78202848 208.78521573 -7.98962235 193.51541448 C-8.03066466 189.63166073 -8.00868893 185.74823418 -7.99382019 181.86436462 C-7.97511324 174.53320945 -8.01186655 167.2034588 -8.06929272 159.87254757 C-8.13199084 151.51680137 -8.13172852 143.16141211 -8.12656748 134.80547535 C-8.11735466 117.63857481 -8.18594034 100.4728639 -8.30688477 83.30639648 C-9.08862061 83.16991699 -9.87035645 83.0334375 -10.67578125 82.89282227 C-15.78074609 81.75501717 -19.69356061 77.5650503 -22.67407227 73.39233398 C-25.10032923 69.23050635 -26.42088421 65.68773428 -26.49975586 60.90185547 C-26.51581879 60.01340439 -26.53188171 59.12495331 -26.5484314 58.20957947 C-26.59316528 54.13175383 -26.63398318 50.05408853 -26.65698242 45.97607422 C-26.67348828 43.8337107 -26.70070662 41.69140101 -26.73901367 39.54931641 C-26.79417877 36.44591967 -26.81572119 33.34381331 -26.83032227 30.23999023 C-26.85299164 29.2948204 -26.87566101 28.34965057 -26.89901733 27.37583923 C-26.87398624 19.37902402 -24.43043555 12.9978656 -19.24438477 6.86889648 C-18.28532227 6.09545898 -18.28532227 6.09545898 -17.30688477 5.30639648 C-16.34782227 4.50202148 -16.34782227 4.50202148 -15.36938477 3.68139648 C-10.40841333 0.3740822 -5.84248334 0.00503968 0 0 Z M45.89624023 306.28295898 C39.28837559 312.35188431 35.12700023 320.45967992 30.75561523 328.18139648 C29.76431318 329.91589819 28.77300305 331.65039534 27.78120422 333.38461304 C26.75834294 335.17467012 25.73774419 336.96600192 24.7175293 338.75756836 C21.54319233 344.32776761 18.33565187 349.87882581 15.13061523 355.43139648 C14.51798828 356.49527588 13.90536133 357.55915527 13.27416992 358.65527344 C10.13347141 364.10436055 6.97305886 369.54070642 3.77905273 374.95874023 C3.14555908 376.03559082 2.51206543 377.11244141 1.859375 378.22192383 C0.66350556 380.25205119 -0.53624468 382.27989989 -1.74072266 384.30493164 C-7.92814736 394.81591029 -11.91405566 402.79037536 -10.30688477 415.30639648 C-8.10360136 422.77928398 -3.66269708 427.93525353 2.69311523 432.30639648 C11.86270612 437.21867731 22.1179308 436.49675537 32.25561523 436.62280273 C33.65666259 436.64341052 35.05770426 436.66440789 36.45874023 436.68577576 C40.1213924 436.740602 43.78409694 436.79018282 47.44683838 436.83862305 C51.19434188 436.88912876 54.94177063 436.94466207 58.68920898 436.99975586 C66.02378085 437.10685386 73.35841547 437.20840326 80.69311523 437.30639648 C81.87762833 440.85993577 81.95953418 443.57653126 81.69311523 447.30639648 C80.59521484 448.99989319 80.59521484 448.99989319 78.69311523 450.30639648 C75.7109375 450.69407654 75.7109375 450.69407654 72.00952148 450.71044922 C71.33424911 450.71731247 70.65897675 450.72417572 69.96324158 450.73124695 C67.7271528 450.74956736 65.49176313 450.74566629 63.25561523 450.73999023 C61.69441501 450.74455349 60.13321679 450.7498595 58.57202148 450.75587463 C55.2934557 450.76481892 52.01513322 450.76237241 48.73657227 450.75244141 C44.56168437 450.74102053 40.38765099 450.76104915 36.21287537 450.79035854 C32.98348756 450.80883975 29.75429933 450.80840338 26.52487183 450.80272102 C24.98768933 450.80256888 23.45049237 450.8085238 21.9133606 450.8210125 C7.90125863 450.91871366 -3.64367623 448.25349302 -14.24438477 438.52905273 C-23.28170895 429.00480376 -26.46012213 417.01928773 -26.25610352 404.08764648 C-24.68792624 388.82153516 -14.59304735 375.11086235 -6.88012695 362.29150391 C-5.99309082 360.80420776 -5.99309082 360.80420776 -5.08813477 359.28686523 C-4.5525293 358.39894287 -4.01692383 357.51102051 -3.46508789 356.59619141 C-2.08120626 354.28789919 -2.08120626 354.28789919 -2.30688477 351.30639648 C-13.11006808 347.99253657 -23.86337388 344.99467505 -34.99438477 342.99389648 C-35.87690918 342.83501953 -36.75943359 342.67614258 -37.66870117 342.51245117 C-43.53012264 341.50586624 -49.38349552 340.82124144 -55.30688477 340.30639648 C-56.0802417 340.2281665 -56.85359863 340.14993652 -57.65039062 340.06933594 C-67.12258645 338.99550494 -67.12258645 338.99550494 -75.82250977 341.93920898 C-77.96582543 344.59583974 -79.60106338 347.34846704 -81.30688477 350.30639648 C-82.66207159 352.28568937 -84.0600489 354.23021937 -85.4621582 356.17651367 C-87.02480954 358.34868867 -88.56056891 360.53792971 -90.09204102 362.73217773 C-93.32792747 367.35161626 -96.6239404 371.92589898 -99.93188477 376.49389648 C-100.47498291 377.24703125 -101.01808105 378.00016602 -101.57763672 378.77612305 C-104.06365268 382.22169995 -106.56101461 385.65633453 -109.10375977 389.06030273 C-121.13893761 405.28240734 -128.40002904 421.9866537 -125.90844727 442.60327148 C-123.40684816 456.9631001 -116.80483388 469.24359552 -106.30688477 479.30639648 C-105.63270508 480.01151367 -104.95852539 480.71663086 -104.26391602 481.44311523 C-90.30226632 495.19520921 -71.26076783 497.47062354 -52.56245422 497.44010925 C-51.00967963 497.44350759 -51.00967963 497.44350759 -49.42553586 497.44697458 C-45.9814329 497.45326866 -42.53736976 497.45248818 -39.09326172 497.45166016 C-36.61369272 497.45465453 -34.1341242 497.4580577 -31.65455627 497.46183777 C-25.6323488 497.46973945 -19.61015678 497.47289121 -13.58794556 497.47345015 C-8.68794911 497.4739268 -3.78795587 497.475989 1.11203957 497.47915077 C15.03270698 497.48794915 28.95336671 497.49257146 42.87403693 497.4918203 C43.62313892 497.49178034 44.37224092 497.49174039 45.14404297 497.49169922 C45.89406945 497.49165834 46.64409593 497.49161746 47.41685048 497.49157534 C59.56316433 497.49116917 71.70944714 497.50073357 83.85575201 497.51483759 C96.3552104 497.52923606 108.85465367 497.53610585 121.35412055 497.53524381 C128.36044459 497.53491302 135.36673608 497.53760792 142.3730526 497.54842186 C148.96654049 497.55853414 155.55997172 497.55815619 162.15346718 497.55090523 C164.56439947 497.54986405 166.97533611 497.55219433 169.38626099 497.55826569 C195.09999886 497.61879213 216.44596766 496.16860111 235.69311523 477.30639648 C236.32217773 476.71342773 236.95124023 476.12045898 237.59936523 475.50952148 C248.34955848 464.46614115 253.54856374 448.41335528 254.06811523 433.30639648 C253.37786908 413.23616201 244.15680045 398.51020546 232.15844727 383.20288086 C229.94316629 380.33578613 227.84544503 377.39056472 225.75561523 374.43139648 C224.94729676 373.29187825 224.13869658 372.1525598 223.32983398 371.01342773 C222.91137207 370.42384277 222.49291016 369.83425781 222.06176758 369.22680664 C219.41422417 365.51193392 216.74021159 361.81612708 214.06811523 358.11889648 C213.51687988 357.35609375 212.96564453 356.59329102 212.39770508 355.80737305 C208.17390508 349.96565145 203.93996878 344.13138594 199.69311523 338.30639648 C195.36590628 338.83111316 191.69499336 339.98245617 187.68164062 341.57885742 C169.07604422 348.97766647 149.49486449 352.7841625 129.69311523 355.30639648 C132.81443945 362.04188559 136.30451777 368.38731828 140.20678711 374.69482422 C149.32481687 389.47294003 154.31157522 402.1994433 151.06811523 419.67358398 C147.65516451 431.40560209 140.35804431 440.43988841 129.69311523 446.30639648 C123.28500145 449.64457669 117.3286725 450.66129788 110.19311523 450.74389648 C109.49814941 450.75412842 108.80318359 450.76436035 108.0871582 450.77490234 C105.21034092 450.72437608 103.16369657 450.62168598 100.73999023 448.99780273 C98.99975234 446.18614972 99.4637792 443.51710095 99.69311523 440.30639648 C100.02311523 439.31639648 100.35311523 438.32639648 100.69311523 437.30639648 C101.65991211 437.2200293 102.62670898 437.13366211 103.62280273 437.04467773 C114.20666716 435.9024587 123.59847897 434.02266389 130.69311523 425.30639648 C134.7060284 419.58999596 136.81020699 415.23666264 137.00561523 408.18139648 C137.04299805 407.31256836 137.08038086 406.44374023 137.11889648 405.54858398 C135.94838473 396.63551282 130.92597131 388.88220177 126.38061523 381.30639648 C125.12210241 379.1792065 123.86431457 377.05158745 122.60717773 374.92358398 C121.63699707 373.28728027 121.63699707 373.28728027 120.6472168 371.61791992 C117.47689381 366.2453236 114.36713014 360.83819062 111.25561523 355.43139648 C110.33171997 353.83146851 110.33171997 353.83146851 109.38916016 352.19921875 C106.46723041 347.13755138 103.55477634 342.07096056 100.6716156 336.98712158 C99.6652952 335.21385509 98.65609144 333.44226107 97.64599609 331.67114258 C96.38452549 329.4573003 95.12843696 327.24037862 93.87890625 325.01977539 C85.39127876 310.06946388 85.39127876 310.06946388 71.09155273 301.49389648 C61.47620757 299.32705814 54.06391636 300.88979879 45.89624023 306.28295898 Z " fill="#000000" transform="translate(192.306884765625,-0.306396484375)"/>
<path d="M0 0 C6.21662489 4.71684983 9.47996411 11.07385474 11.12109375 18.609375 C11.95940488 26.43361224 9.40046273 33.82820886 4.6484375 40.0390625 C-0.74211582 45.58126822 -6.83929677 47.76741029 -14.44140625 47.984375 C-22.26804334 47.91168178 -27.80544195 46.1725752 -33.71875 41 C-38.91130899 35.46465595 -41.00437463 29.63691229 -41.25390625 22.109375 C-40.97204739 13.93546804 -38.51278854 8.32925484 -32.875 2.375 C-23.86302883 -5.59645004 -10.23677641 -5.98405977 0 0 Z M-23.87890625 17.609375 C-25.12729006 21.01466496 -25.12729006 21.01466496 -24.87890625 24.609375 C-22.64910957 28.86735876 -22.64910957 28.86735876 -18.87890625 31.609375 C-12.9812789 32.23993742 -12.9812789 32.23993742 -7.94140625 29.484375 C-5.62632287 26.25728907 -4.87890625 24.57177346 -4.87890625 20.609375 C-6.40764496 16.63465437 -7.30671122 14.99083835 -10.87890625 12.609375 C-17.11651386 11.90512898 -20.04986355 12.15588994 -23.87890625 17.609375 Z " fill="#000000" transform="translate(277.87890625,157.390625)"/>
<path d="M0 0 C6.21865591 3.60194721 10.21882961 8.41432786 12.29296875 15.328125 C14.10422671 24.63912297 12.94601099 31.65109347 7.73046875 39.578125 C3.20837057 45.10636239 -2.06397777 47.81843174 -9.11328125 48.8046875 C-17.99812848 49.17167032 -24.7357086 47.58171954 -31.546875 41.75390625 C-36.57254088 36.48248654 -38.75054657 30.09673196 -39.14453125 22.890625 C-38.85063549 15.87386365 -36.2672586 9.62041895 -31.51953125 4.453125 C-22.331736 -3.79833443 -11.19813349 -5.05607299 0 0 Z M-21.70703125 18.328125 C-23.03796285 21.72782311 -23.03796285 21.72782311 -22.70703125 25.328125 C-20.47723457 29.58610876 -20.47723457 29.58610876 -16.70703125 32.328125 C-10.8094039 32.95868742 -10.8094039 32.95868742 -5.76953125 30.203125 C-3.47121199 26.99940724 -2.70703125 25.26190216 -2.70703125 21.328125 C-4.31267046 17.69430995 -6.19906615 15.23244891 -9.70703125 13.328125 C-15.29880125 12.35564326 -17.96243797 14.23519747 -21.70703125 18.328125 Z " fill="#000000" transform="translate(399.70703125,415.671875)"/>
<path d="M0 0 C2.57881512 1.99508987 3.83154084 3.20519678 4.5146637 6.42822266 C4.52396156 7.78246338 4.52396156 7.78246338 4.53344727 9.1640625 C4.5492836 10.19192871 4.56511993 11.21979492 4.58143616 12.27880859 C4.57399635 13.93517334 4.57399635 13.93517334 4.56640625 15.625 C4.57570412 17.33357178 4.57570412 17.33357178 4.58518982 19.07666016 C4.59229133 21.48404078 4.5891083 23.89147048 4.57641602 26.29882812 C4.56255041 29.986594 4.59662024 33.67182349 4.63476562 37.359375 C4.63571679 39.69791729 4.63385815 42.03646276 4.62890625 44.375 C4.64216446 45.47924316 4.65542267 46.58348633 4.66908264 47.72119141 C4.57620181 55.33853926 4.57620181 55.33853926 1.65209961 58.6953125 C-1.58748252 60.28900917 -3.43595078 60.60664668 -7 60 C-9.30275556 58.1329009 -10.67823871 56.64352259 -12 54 C-12.10487898 52.4846902 -12.14868558 50.96492888 -12.16113281 49.44604492 C-12.17074036 48.50133835 -12.1803479 47.55663177 -12.19024658 46.58329773 C-12.19449646 45.55936417 -12.19874634 44.5354306 -12.203125 43.48046875 C-12.20882507 42.42974686 -12.21452515 41.37902496 -12.22039795 40.29646301 C-12.22985652 38.06964121 -12.23638532 35.84280536 -12.24023438 33.6159668 C-12.24993071 30.21182748 -12.2809427 26.80829416 -12.3125 23.40429688 C-12.31903086 21.24219109 -12.32428101 19.08008098 -12.328125 16.91796875 C-12.3404718 15.90010788 -12.3528186 14.88224701 -12.36553955 13.83354187 C-12.33747519 4.91081809 -12.33747519 4.91081809 -9 1 C-5.90826248 -0.54586876 -3.40570448 -0.29359521 0 0 Z " fill="#000000" transform="translate(259,324)"/>
<path d="M0 0 C2.875 1.6875 2.875 1.6875 5 5 C5.64151103 9.40690183 5.81230336 13.61356186 5 18 C2.94521095 20.56209173 1.65176361 21.76603358 -1.4375 22.875 C-4.52966652 23.02583739 -6.28528446 22.46741381 -9 21 C-12.25519737 16.11720395 -11.69222794 10.70196002 -11 5 C-8.05709253 0.41252658 -5.41842755 -1.12883907 0 0 Z " fill="#000000" transform="translate(259,399)"/>
</svg>
