<?xml version="1.0" encoding="UTF-8"?>
<svg id="Layer_2" data-name="Layer 2" xmlns="http://www.w3.org/2000/svg" viewBox="0 0 42.22 42.22">
  <path fill="#00aa72" d="M18.44,39.21c0,1.03-.1,2.03-.3,3.01-2.5-.34-4.86-1.89-6-4.65l-.1-.24c-1.34-3.24-3.92-5.82-7.17-7.17l-.24-.1c-2.75-1.14-4.3-3.49-4.64-5.99.97-.19,1.98-.3,3.02-.3,8.52,0,15.43,6.91,15.43,15.43ZM18.44,6.82c0-1.03-.1-2.04-.3-3.01-2.5.34-4.86,1.89-6,4.65l-.1.24c-1.34,3.24-3.92,5.82-7.16,7.16l-.25.1c-2.76,1.14-4.3,3.49-4.65,5.99.97.19,1.98.3,3.02.3,8.52,0,15.43-6.91,15.43-15.43h0ZM26.27,37.57l.1-.24c1.34-3.24,3.92-5.82,7.17-7.17l.24-.1c2.76-1.14,4.3-3.49,4.65-6-.97-.19-1.98-.3-3.02-.3-8.52,0-15.43,6.91-15.43,15.43,0,1.03.1,2.03.3,3.01,2.5-.34,4.86-1.89,6-4.65h0ZM35.41,22.25c1.03,0,2.04-.1,3.02-.3-.34-2.5-1.89-4.85-4.65-5.99l-.24-.1c-3.24-1.34-5.82-3.92-7.16-7.16l-.1-.24c-1.14-2.76-3.49-4.3-6-4.65-.19.97-.3,1.98-.3,3.01,0,8.52,6.91,15.43,15.43,15.43Z"/>
</svg>