<svg xmlns="http://www.w3.org/2000/svg" width="808" height="1181" viewBox="0 0 808 1181" version="1.1"><path d="M 0 590.501 L 0 1181.002 404.250 1180.751 L 808.500 1180.500 808.751 590.250 L 809.002 0 404.501 0 L 0 0 0 590.501 M 0.497 591 C 0.497 915.775, 0.611 1048.637, 0.750 886.250 C 0.889 723.862, 0.889 458.137, 0.750 295.750 C 0.611 133.362, 0.497 266.225, 0.497 591 M 255.250 21.337 C 252.363 21.903, 250 22.733, 250 23.182 C 250 23.632, 249.306 24, 248.458 24 C 247.610 24, 246.229 24.563, 245.389 25.250 C 244.550 25.938, 216.980 53.275, 184.123 86 C 126.870 143.023, 118.608 151, 116.807 151 C 116.363 151, 116 151.719, 116 152.599 C 116 153.478, 114.537 155.507, 112.750 157.108 C 93.467 174.375, 22.497 245.255, 20.918 248.824 C 20.144 250.571, 19.172 252, 18.756 252 C 18.340 252, 18 253.098, 18 254.441 C 18 255.784, 17.550 257.160, 17 257.500 C 15.613 258.357, 15.613 1091.643, 17 1092.500 C 17.550 1092.840, 18 1094.474, 18 1096.130 C 18 1099.667, 19.222 1101.078, 24.563 1103.705 C 36.092 1109.376, 47.731 1110.018, 138.789 1110.008 C 212.951 1110, 234.977 1109.300, 235.833 1106.925 C 236.017 1106.416, 236.825 1106, 237.629 1106 C 239.305 1106, 244 1101.612, 244 1100.045 C 244 1099.470, 244.450 1099, 245 1099 C 245.550 1099, 246 1096.975, 246 1094.500 C 246 1092.025, 246.450 1090, 247 1090 C 247.663 1090, 248 1022.985, 248 890.955 L 248 691.909 250.559 689.350 C 252.704 687.205, 253.635 686.916, 256.309 687.564 C 259.460 688.327, 288.014 688.428, 346.500 687.883 C 363 687.729, 420.150 687.972, 473.500 688.422 C 572.766 689.260, 657.112 688.150, 657.833 685.996 C 658.017 685.448, 659.254 685, 660.583 685 C 661.913 685, 663 684.550, 663 684 C 663 683.450, 663.675 683, 664.500 683 C 665.325 683, 666 682.550, 666 682 C 666 681.450, 666.675 681, 667.500 681 C 668.325 681, 669 680.619, 669 680.153 C 669 679.687, 669.853 678.323, 670.896 677.120 C 671.938 675.918, 673.626 672.587, 674.646 669.717 C 676.405 664.767, 676.489 659.901, 676.293 574.500 C 676.056 471.492, 676.094 472.025, 668.437 464.507 C 664.427 460.570, 661.597 459, 658.514 459 C 657.131 459, 656 458.550, 656 458 C 656 457.337, 588.478 457, 455.434 457 C 250.664 457, 252.896 457.039, 249.271 453.413 C 248.260 452.403, 248 431.972, 248 353.693 L 248 255.243 250.750 254.177 C 259.969 250.605, 304.264 250.260, 521 252.069 C 607.602 252.793, 668.631 252.829, 705.234 252.180 L 759.968 251.209 764.235 248.708 C 770.937 244.781, 774.381 239.894, 777.069 230.500 C 779.198 223.061, 779.193 49.637, 777.064 40 C 774.420 28.030, 769.595 23.298, 757.885 21.191 C 749.157 19.620, 263.300 19.762, 255.250 21.337" stroke="none" fill="#ffffff" fill-rule="evenodd"/><path d="M 252 23 C 252 23.550, 251.100 24, 250 24 C 248.900 24, 248 24.450, 248 25 C 248 25.550, 247.322 26, 246.494 26 C 245.666 26, 216.644 54.350, 182 89 C 147.356 123.650, 118.559 152, 118.006 152 C 117.453 152, 117 152.450, 117 153 C 117 153.550, 117.675 154, 118.500 154 C 119.325 154, 120 153.626, 120 153.169 C 120 152.712, 121.237 151.699, 122.750 150.919 C 124.263 150.139, 126.372 148.713, 127.439 147.750 C 128.505 146.787, 129.741 146, 130.187 146 C 130.632 146, 132.907 144.200, 135.243 142 C 137.578 139.800, 139.837 138, 140.263 138 C 141.284 138, 154 125.267, 154 124.245 C 154 123.227, 169.293 108, 170.315 108 C 170.739 108, 174.647 104.400, 179 100 C 183.353 95.600, 187.393 92, 187.978 92 C 188.563 92, 196.673 84.350, 206 75 C 215.327 65.650, 223.642 58, 224.479 58 C 225.315 58, 226 57.550, 226 57 C 226 56.450, 226.900 56, 228 56 C 229.100 56, 230 55.550, 230 55 C 230 54.450, 230.900 54, 232 54 C 233.100 54, 234 53.550, 234 53 C 234 52.450, 234.900 52, 236 52 C 237.100 52, 238 51.550, 238 51 C 238 50.450, 239.751 50, 241.891 50 L 245.782 50 246.385 87.250 C 246.717 107.738, 247.268 153.412, 247.609 188.750 L 248.230 253 251.115 253 C 252.702 253, 254 252.550, 254 252 C 254 251.336, 338.314 251, 504.941 251 C 671.156 251, 756.091 250.662, 756.500 250 C 756.840 249.450, 758.223 249, 759.573 249 C 764.305 249, 769.219 244.953, 772.750 238.147 C 773.988 235.762, 775 232.755, 775 231.465 C 775 230.174, 775.385 228.880, 775.856 228.589 C 777.093 227.825, 778.128 80.747, 777.040 60.500 C 776.022 41.569, 775.425 36.662, 773.695 33 C 771.850 29.095, 766.418 24, 764.100 24 C 762.945 24, 762 23.550, 762 23 C 762 22.336, 676.333 22, 507 22 C 337.667 22, 252 22.336, 252 23" stroke="none" fill="#de6044" fill-rule="evenodd"/><path d="M 258 21 C 256.625 21.440, 368.900 21.792, 507.500 21.782 C 646.100 21.772, 758.150 21.420, 756.500 21 C 752.483 19.978, 261.192 19.978, 258 21 M 767 24.468 C 767 24.751, 768.246 26.224, 769.769 27.741 C 775.125 33.077, 775.706 35.691, 777.040 60.500 C 778.128 80.747, 777.093 227.825, 775.856 228.589 C 775.385 228.880, 775 230.174, 775 231.465 C 775 234.303, 771.228 241.831, 768.590 244.256 C 767.539 245.222, 766.900 246.233, 767.169 246.502 C 767.877 247.210, 771.492 243.071, 773.722 239 C 778.550 230.184, 778.500 231.252, 778.500 136 C 778.500 41.022, 778.372 38.162, 773.764 30.332 C 772.122 27.542, 767 23.102, 767 24.468 M 238 51 C 238 51.550, 237.100 52, 236 52 C 234.900 52, 234 52.450, 234 53 C 234 53.550, 233.100 54, 232 54 C 230.900 54, 230 54.450, 230 55 C 230 55.550, 229.100 56, 228 56 C 226.900 56, 226 56.450, 226 57 C 226 57.550, 225.315 58, 224.479 58 C 223.642 58, 215.327 65.650, 206 75 C 196.673 84.350, 188.563 92, 187.978 92 C 187.393 92, 183.353 95.600, 179 100 C 174.647 104.400, 170.718 108, 170.269 108 C 169.250 108, 154 123.270, 154 124.291 C 154 125.282, 141.256 138, 140.263 138 C 139.837 138, 137.681 139.688, 135.472 141.750 C 133.263 143.813, 130.227 146.139, 128.727 146.919 C 127.227 147.699, 126 148.712, 126 149.169 C 126 149.626, 125.410 150, 124.689 150 C 123.967 150, 122.411 150.900, 121.230 152 C 118.916 154.156, 117 154.609, 117 153 C 117 152.450, 117.465 152, 118.033 152 C 118.602 152, 120.642 150.425, 122.567 148.500 C 126.834 144.233, 125.798 143.888, 121.114 148.016 C 119.252 149.657, 117.340 151, 116.864 151 C 116.389 151, 116 151.719, 116 152.599 C 116 153.478, 114.538 155.507, 112.750 157.108 C 93.467 174.375, 22.497 245.255, 20.918 248.824 C 20.144 250.571, 19.172 252, 18.756 252 C 18.340 252, 18 253.098, 18 254.441 C 18 255.784, 17.550 257.160, 17 257.500 C 15.613 258.357, 15.613 1091.643, 17 1092.500 C 17.550 1092.840, 18 1094.474, 18 1096.130 C 18 1099.667, 19.222 1101.078, 24.563 1103.705 C 36.092 1109.376, 47.731 1110.018, 138.789 1110.008 C 212.951 1110, 234.977 1109.300, 235.833 1106.925 C 236.017 1106.416, 236.825 1106, 237.629 1106 C 239.305 1106, 244 1101.612, 244 1100.045 C 244 1099.470, 244.450 1099, 245 1099 C 245.550 1099, 246 1096.975, 246 1094.500 C 246 1092.025, 246.450 1090, 247 1090 C 247.663 1090, 248 1022.985, 248 890.955 L 248 691.909 250.559 689.350 C 252.704 687.205, 253.635 686.916, 256.309 687.564 C 259.460 688.327, 288.014 688.428, 346.500 687.883 C 363 687.729, 420.150 687.972, 473.500 688.422 C 572.766 689.260, 657.112 688.150, 657.833 685.996 C 658.017 685.448, 659.254 685, 660.583 685 C 661.913 685, 663 684.550, 663 684 C 663 683.450, 663.675 683, 664.500 683 C 665.325 683, 666 682.550, 666 682 C 666 681.450, 666.675 681, 667.500 681 C 668.325 681, 669 680.619, 669 680.153 C 669 679.687, 669.853 678.323, 670.896 677.120 C 671.938 675.918, 673.626 672.587, 674.646 669.717 C 676.405 664.767, 676.489 659.901, 676.293 574.500 C 676.056 471.492, 676.094 472.025, 668.437 464.507 C 664.427 460.570, 661.597 459, 658.514 459 C 657.131 459, 656 458.550, 656 458 C 656 457.337, 588.478 457, 455.434 457 C 250.664 457, 252.896 457.039, 249.271 453.413 C 248.260 452.403, 248 431.978, 248 353.724 L 248 255.306 250.250 254.220 C 252.480 253.145, 252.481 253.135, 250.365 253.068 L 248.230 253 247.609 188.750 C 247.268 153.412, 246.717 107.738, 246.385 87.250 L 245.782 50 241.891 50 C 239.751 50, 238 50.450, 238 51 M 763.500 248 C 763.160 248.550, 761.585 249, 760 249 C 758.415 249, 756.840 249.450, 756.500 250 C 755.557 251.526, 759.730 251.191, 763.050 249.474 C 766.029 247.934, 766.787 247, 765.059 247 C 764.541 247, 763.840 247.450, 763.500 248 M 254 252.042 C 254 252.994, 268.775 252.366, 269.917 251.365 C 270.146 251.164, 266.658 251, 262.167 251 C 257.171 251, 254 251.404, 254 252.042 M 545.709 252.188 C 602.408 252.670, 668.816 252.668, 696.709 252.184 C 737.077 251.484, 717.923 251.322, 595.500 251.324 L 444.500 251.328 545.709 252.188" stroke="none" fill="#eb6646" fill-rule="evenodd"/></svg>