<?xml version="1.0" encoding="UTF-8"?>
<!DOCTYPE svg PUBLIC "-//W3C//DTD SVG 1.1//EN" "http://www.w3.org/Graphics/SVG/1.1/DTD/svg11.dtd">
<svg xmlns="http://www.w3.org/2000/svg" version="1.1" width="400px" height="400px" style="shape-rendering:geometricPrecision; text-rendering:geometricPrecision; image-rendering:optimizeQuality; fill-rule:evenodd; clip-rule:evenodd" xmlns:xlink="http://www.w3.org/1999/xlink">
<g><path style="opacity:1" fill="#d52e52" d="M 211.5,59.5 C 208.128,57.5883 205.128,55.255 202.5,52.5C 202.388,49.0232 200.721,47.5232 197.5,48C 191.038,52.6284 185.038,57.795 179.5,63.5C 184.236,57.2575 189.569,51.4242 195.5,46C 196.729,45.2189 198.062,44.7189 199.5,44.5C 203.727,49.2695 207.727,54.2695 211.5,59.5 Z"/></g>
<g><path style="opacity:1" fill="#f9003d" d="M 202.5,52.5 C 205.128,55.255 208.128,57.5883 211.5,59.5C 211.733,61.0618 212.4,62.3951 213.5,63.5C 212.167,63.5 210.833,63.5 209.5,63.5C 207.614,57.0438 205.947,57.0438 204.5,63.5C 203.5,63.5 202.5,63.5 201.5,63.5C 201.667,101.168 201.5,138.835 201,176.5C 199.133,178.91 199.133,181.244 201,183.5C 202.049,181.893 203.549,181.227 205.5,181.5C 205.5,180.167 205.5,178.833 205.5,177.5C 208.881,177.54 212.214,177.207 215.5,176.5C 212.742,177.967 213.075,178.633 216.5,178.5C 216.167,179.167 215.833,179.833 215.5,180.5C 211.077,180.69 206.744,181.357 202.5,182.5C 202.719,183.675 202.386,184.675 201.5,185.5C 199.255,183.24 196.589,181.906 193.5,181.5C 193.843,179.517 193.176,178.183 191.5,177.5C 189.842,176.819 188.175,175.985 186.5,175C 187.164,137.9 187.83,100.733 188.5,63.5C 190.016,64.8038 190.682,64.3038 190.5,62C 190.333,61.1667 190.167,60.3333 190,59.5C 189.346,60.6956 188.846,60.6956 188.5,59.5C 189,58.5 189.5,57.5 190,56.5C 190.718,57.4506 191.551,57.6172 192.5,57C 194.228,55.027 196.061,53.1937 198,51.5C 198.915,52.3279 199.581,53.3279 200,54.5C 200.708,53.6195 201.542,52.9528 202.5,52.5 Z"/></g>
<g><path style="opacity:1" fill="#f80237" d="M 213.5,63.5 C 215.902,65.9092 218.569,67.9092 221.5,69.5C 223.884,71.8847 226.55,73.8847 229.5,75.5C 230.585,77.5869 232.251,78.9202 234.5,79.5C 239.313,84.0695 244.313,88.4029 249.5,92.5C 244.285,90.1885 238.952,89.1885 233.5,89.5C 233.5,88.1667 233.5,86.8333 233.5,85.5C 234.761,82.6807 233.761,80.6807 230.5,79.5C 229.914,79.7093 229.414,80.0426 229,80.5C 228.781,79.062 228.281,77.7287 227.5,76.5C 223.984,75.2441 220.984,73.2441 218.5,70.5C 216.259,72.4517 214.259,74.6184 212.5,77C 211.004,77.5074 209.837,77.0074 209,75.5C 207.812,76.5634 207.312,77.8967 207.5,79.5C 208.833,79.5 210.167,79.5 211.5,79.5C 211.5,111.5 211.5,143.5 211.5,175.5C 213.099,175.232 214.432,175.566 215.5,176.5C 212.214,177.207 208.881,177.54 205.5,177.5C 205.5,178.833 205.5,180.167 205.5,181.5C 203.549,181.227 202.049,181.893 201,183.5C 199.133,181.244 199.133,178.91 201,176.5C 201.5,138.835 201.667,101.168 201.5,63.5C 202.5,63.5 203.5,63.5 204.5,63.5C 205.947,57.0438 207.614,57.0438 209.5,63.5C 210.833,63.5 212.167,63.5 213.5,63.5 Z"/></g>
<g><path style="opacity:1" fill="#f90044" d="M 202.5,52.5 C 201.542,52.9528 200.708,53.6195 200,54.5C 199.581,53.3279 198.915,52.3279 198,51.5C 196.061,53.1937 194.228,55.027 192.5,57C 191.551,57.6172 190.718,57.4506 190,56.5C 189.5,57.5 189,58.5 188.5,59.5C 188.846,60.6956 189.346,60.6956 190,59.5C 190.167,60.3333 190.333,61.1667 190.5,62C 190.682,64.3038 190.016,64.8038 188.5,63.5C 187.83,100.733 187.164,137.9 186.5,175C 188.175,175.985 189.842,176.819 191.5,177.5C 187.757,177.459 187.59,178.126 191,179.5C 191.374,180.416 191.874,181.25 192.5,182C 192.167,182.167 191.833,182.333 191.5,182.5C 189.754,180.146 187.421,179.146 184.5,179.5C 181.937,177.47 179.104,175.803 176,174.5C 175.807,169.25 175.307,164.083 174.5,159C 175.055,154.332 175.388,149.999 175.5,146C 174.833,145.667 174.167,145.333 173.5,145C 174.808,139.578 175.475,133.911 175.5,128C 175.391,116.465 174.058,105.132 171.5,94C 173.091,90.8102 174.425,87.4769 175.5,84C 175.814,78.3225 176.814,72.8225 178.5,67.5C 178.833,66.1667 179.167,64.8333 179.5,63.5C 185.038,57.795 191.038,52.6284 197.5,48C 200.721,47.5232 202.388,49.0232 202.5,52.5 Z"/></g>
<g><path style="opacity:1" fill="#ce3154" d="M 211.5,59.5 C 215.167,62.5 218.5,65.8333 221.5,69.5C 218.569,67.9092 215.902,65.9092 213.5,63.5C 212.4,62.3951 211.733,61.0618 211.5,59.5 Z"/></g>
<g><path style="opacity:1" fill="#cc395d" d="M 179.5,63.5 C 179.167,64.8333 178.833,66.1667 178.5,67.5C 176.5,69.5 174.5,71.5 172.5,73.5C 174.062,69.6082 176.395,66.2749 179.5,63.5 Z"/></g>
<g><path style="opacity:1" fill="#f90032" d="M 233.5,85.5 C 232.25,85.9074 231.083,85.2407 230,83.5C 229.833,84.5 229.667,85.5 229.5,86.5C 230.442,89.1371 231.442,91.8037 232.5,94.5C 231.517,121.474 231.184,148.474 231.5,175.5C 233.833,175.5 236.167,175.5 238.5,175.5C 239.071,177.36 239.071,179.027 238.5,180.5C 231.372,178.76 224.039,178.093 216.5,178.5C 213.075,178.633 212.742,177.967 215.5,176.5C 214.432,175.566 213.099,175.232 211.5,175.5C 211.5,143.5 211.5,111.5 211.5,79.5C 210.167,79.5 208.833,79.5 207.5,79.5C 207.312,77.8967 207.812,76.5634 209,75.5C 209.837,77.0074 211.004,77.5074 212.5,77C 214.259,74.6184 216.259,72.4517 218.5,70.5C 220.984,73.2441 223.984,75.2441 227.5,76.5C 228.281,77.7287 228.781,79.062 229,80.5C 229.414,80.0426 229.914,79.7093 230.5,79.5C 233.761,80.6807 234.761,82.6807 233.5,85.5 Z"/></g>
<g><path style="opacity:1" fill="#fabccb" d="M 229.5,75.5 C 231.749,76.0798 233.415,77.4131 234.5,79.5C 232.251,78.9202 230.585,77.5869 229.5,75.5 Z"/></g>
<g><path style="opacity:1" fill="#f7014c" d="M 178.5,67.5 C 176.814,72.8225 175.814,78.3225 175.5,84C 174.425,87.4769 173.091,90.8102 171.5,94C 174.058,105.132 175.391,116.465 175.5,128C 175.475,133.911 174.808,139.578 173.5,145C 174.167,145.333 174.833,145.667 175.5,146C 175.388,149.999 175.055,154.332 174.5,159C 175.307,164.083 175.807,169.25 176,174.5C 179.104,175.803 181.937,177.47 184.5,179.5C 183.167,179.5 181.833,179.5 180.5,179.5C 174.333,179.101 168.333,179.768 162.5,181.5C 159.848,181.41 157.515,182.076 155.5,183.5C 151.616,179.389 148.116,180.389 145,186.5C 144.5,186 144,185.5 143.5,185C 144.451,181.943 144.784,178.777 144.5,175.5C 145.5,175.5 146.5,175.5 147.5,175.5C 147.5,164.833 147.5,154.167 147.5,143.5C 151.167,143.5 154.833,143.5 158.5,143.5C 161.871,146.871 165.537,149.871 169.5,152.5C 170.338,152.158 170.672,151.492 170.5,150.5C 171.201,146.181 170.034,142.514 167,139.5C 165.373,132.976 164.04,126.309 163,119.5C 162.187,109.358 163.021,99.358 165.5,89.5C 168.356,85.2754 170.356,80.6087 171.5,75.5C 171.328,74.5084 171.662,73.8417 172.5,73.5C 174.5,71.5 176.5,69.5 178.5,67.5 Z"/></g>
<g><path style="opacity:1" fill="#d33a64" d="M 171.5,75.5 C 170.356,80.6087 168.356,85.2754 165.5,89.5C 166.157,84.1764 168.157,79.5097 171.5,75.5 Z"/></g>
<g><path style="opacity:1" fill="#f8012b" d="M 233.5,85.5 C 233.5,86.8333 233.5,88.1667 233.5,89.5C 238.952,89.1885 244.285,90.1885 249.5,92.5C 254.765,95.4347 259.432,99.1014 263.5,103.5C 260.908,103.454 258.741,102.454 257,100.5C 253.996,101.576 251.663,100.576 250,97.5C 249.586,97.9574 249.086,98.2907 248.5,98.5C 247.868,96.2632 246.535,94.5965 244.5,93.5C 243.692,93.8076 243.025,94.3076 242.5,95C 243.495,121.426 243.828,147.926 243.5,174.5C 241.654,174.222 240.32,174.889 239.5,176.5C 242.061,178.64 244.395,180.973 246.5,183.5C 246.376,184.107 246.043,184.44 245.5,184.5C 244.188,183.855 243.188,182.855 242.5,181.5C 241.311,180.571 239.978,180.238 238.5,180.5C 239.071,179.027 239.071,177.36 238.5,175.5C 236.167,175.5 233.833,175.5 231.5,175.5C 231.184,148.474 231.517,121.474 232.5,94.5C 231.442,91.8037 230.442,89.1371 229.5,86.5C 229.667,85.5 229.833,84.5 230,83.5C 231.083,85.2407 232.25,85.9074 233.5,85.5 Z"/></g>
<g><path style="opacity:1" fill="#f90024" d="M 263.5,103.5 C 263.833,103.5 264.167,103.5 264.5,103.5C 264.631,104.239 264.464,104.906 264,105.5C 262.708,104.209 261.542,104.209 260.5,105.5C 258.314,107.099 256.314,108.933 254.5,111C 255.15,121.801 255.484,132.635 255.5,143.5C 255.421,155.44 254.754,166.94 253.5,178C 255.83,181.204 256.164,184.704 254.5,188.5C 255.077,190.55 256.41,191.55 258.5,191.5C 258.007,193.806 257.674,196.139 257.5,198.5C 256.778,197.449 255.778,196.782 254.5,196.5C 253.621,191.952 250.954,188.952 246.5,187.5C 245.89,186.609 245.557,185.609 245.5,184.5C 246.043,184.44 246.376,184.107 246.5,183.5C 244.395,180.973 242.061,178.64 239.5,176.5C 240.32,174.889 241.654,174.222 243.5,174.5C 243.828,147.926 243.495,121.426 242.5,95C 243.025,94.3076 243.692,93.8076 244.5,93.5C 246.535,94.5965 247.868,96.2632 248.5,98.5C 249.086,98.2907 249.586,97.9574 250,97.5C 251.663,100.576 253.996,101.576 257,100.5C 258.741,102.454 260.908,103.454 263.5,103.5 Z"/></g>
<g><path style="opacity:1" fill="#cc5983" d="M 145.5,87.5 C 146.487,92.3054 146.821,97.3054 146.5,102.5C 145.675,98.3528 145.175,94.0195 145,89.5C 144.283,90.0442 143.783,90.7109 143.5,91.5C 142.833,91.5 142.167,91.5 141.5,91.5C 142.5,89.8333 143.833,88.5 145.5,87.5 Z"/></g>
<g><path style="opacity:1" fill="#f9e3f3" d="M 145.5,87.5 C 146.209,86.596 147.209,86.2627 148.5,86.5C 148.959,94.0885 149.125,101.755 149,109.5C 149.956,110.579 150.789,111.745 151.5,113C 150.565,115.381 150.232,117.881 150.5,120.5C 148.083,114.864 146.75,108.864 146.5,102.5C 146.821,97.3054 146.487,92.3054 145.5,87.5 Z"/></g>
<g><path style="opacity:1" fill="#f90056" d="M 144.5,111.5 C 146.376,115.489 146.71,119.655 145.5,124C 146.167,124.333 146.833,124.667 147.5,125C 145.637,126.418 145.137,128.251 146,130.5C 149.191,125.166 150.691,125.832 150.5,132.5C 152.322,132.831 153.989,133.498 155.5,134.5C 155.187,137.247 155.52,139.914 156.5,142.5C 157.944,141.019 158.611,141.352 158.5,143.5C 154.833,143.5 151.167,143.5 147.5,143.5C 147.5,154.167 147.5,164.833 147.5,175.5C 146.5,175.5 145.5,175.5 144.5,175.5C 144.784,178.777 144.451,181.943 143.5,185C 144,185.5 144.5,186 145,186.5C 148.116,180.389 151.616,179.389 155.5,183.5C 154.432,184.434 153.099,184.768 151.5,184.5C 151.5,185.5 151.5,186.5 151.5,187.5C 149.856,187.286 148.356,187.62 147,188.5C 145.45,193.195 143.283,197.529 140.5,201.5C 139.566,200.432 139.232,199.099 139.5,197.5C 138.178,197.33 137.011,197.663 136,198.5C 135.833,184 135.667,169.5 135.5,155C 135.531,139.741 136.198,124.574 137.5,109.5C 136.491,106.663 134.491,105.33 131.5,105.5C 130.596,104.791 130.263,103.791 130.5,102.5C 131.833,102.5 133.167,102.5 134.5,102.5C 134.281,101.325 134.614,100.325 135.5,99.5C 137.59,98.4576 139.59,97.6243 141.5,97C 140.185,98.3946 140.519,99.3946 142.5,100C 142.167,100.333 141.833,100.667 141.5,101C 142.941,104.466 143.941,107.966 144.5,111.5 Z"/></g>
<g><path style="opacity:1" fill="#f9005c" d="M 131.5,105.5 C 134.491,105.33 136.491,106.663 137.5,109.5C 136.198,124.574 135.531,139.741 135.5,155C 135.667,169.5 135.833,184 136,198.5C 137.011,197.663 138.178,197.33 139.5,197.5C 139.232,199.099 139.566,200.432 140.5,201.5C 140.5,203.167 140.5,204.833 140.5,206.5C 139.393,211.081 139.227,215.748 140,220.5C 141.15,223.768 141.984,227.101 142.5,230.5C 141.417,230.461 140.417,230.127 139.5,229.5C 138.829,223.428 137.829,217.428 136.5,211.5C 137.309,209.208 137.643,207.041 137.5,205C 136.809,203.933 136.309,202.766 136,201.5C 132.506,210.914 132.673,220.247 136.5,229.5C 135.34,264.458 135.174,299.458 136,334.5C 136.278,335.416 136.778,336.082 137.5,336.5C 136.903,337.139 136.07,337.472 135,337.5C 132.73,336.14 130.23,335.473 127.5,335.5C 127.5,334.833 127.5,334.167 127.5,333.5C 127.859,331.234 127.192,329.401 125.5,328C 125.957,327.586 126.291,327.086 126.5,326.5C 120.503,325.532 119.337,322.865 123,318.5C 123.667,255.167 123.667,191.833 123,128.5C 122.333,127.167 121.667,127.167 121,128.5C 120.667,127.833 120.333,127.167 120,126.5C 118.989,127.337 117.822,127.67 116.5,127.5C 116.684,124.827 117.851,124.16 120,125.5C 120.684,123.641 121.684,121.974 123,120.5C 123.587,116.83 125.087,113.663 127.5,111C 126.62,109.644 126.286,108.144 126.5,106.5C 127.5,106.5 128.5,106.5 129.5,106.5C 129.679,108.606 130.679,110.272 132.5,111.5C 133.77,109.243 133.436,107.243 131.5,105.5 Z"/></g>
<g><path style="opacity:1" fill="#e41c2a" d="M 264.5,103.5 C 264.833,103.5 265.167,103.5 265.5,103.5C 272.142,109.137 278.808,114.804 285.5,120.5C 288.167,122.5 290.5,124.833 292.5,127.5C 290.255,126.904 288.255,125.904 286.5,124.5C 282.803,120.077 278.136,117.077 272.5,115.5C 271.194,114.088 270.36,112.421 270,110.5C 269.329,111.252 268.496,111.586 267.5,111.5C 265.91,109.766 263.91,108.6 261.5,108C 260.748,107.329 260.414,106.496 260.5,105.5C 261.542,104.209 262.708,104.209 264,105.5C 264.464,104.906 264.631,104.239 264.5,103.5 Z"/></g>
<g><path style="opacity:1" fill="#f90019" d="M 286.5,124.5 C 284.621,124.393 284.288,124.893 285.5,126C 284.17,157.954 283.504,190.12 283.5,222.5C 283.667,254.5 283.833,286.5 284,318.5C 285.113,319.305 286.279,319.972 287.5,320.5C 287.5,321.833 287.5,323.167 287.5,324.5C 286.041,324.433 284.708,324.766 283.5,325.5C 278.845,324.994 274.845,326.327 271.5,329.5C 270.548,331.045 270.215,332.712 270.5,334.5C 269.5,334.5 268.5,334.5 267.5,334.5C 266.861,260.063 266.861,185.729 267.5,111.5C 268.496,111.586 269.329,111.252 270,110.5C 270.36,112.421 271.194,114.088 272.5,115.5C 278.136,117.077 282.803,120.077 286.5,124.5 Z"/></g>
<g><path style="opacity:1" fill="#df235e" d="M 146.5,102.5 C 146.75,108.864 148.083,114.864 150.5,120.5C 151.205,125.528 152.872,130.195 155.5,134.5C 153.989,133.498 152.322,132.831 150.5,132.5C 150.691,125.832 149.191,125.166 146,130.5C 145.137,128.251 145.637,126.418 147.5,125C 146.833,124.667 146.167,124.333 145.5,124C 146.71,119.655 146.376,115.489 144.5,111.5C 144.824,104.646 144.491,97.979 143.5,91.5C 143.783,90.7109 144.283,90.0442 145,89.5C 145.175,94.0195 145.675,98.3528 146.5,102.5 Z"/></g>
<g><path style="opacity:1" fill="#f9e4e7" d="M 285.5,120.5 C 278.808,114.804 272.142,109.137 265.5,103.5C 266.5,103.5 267.5,103.5 268.5,103.5C 268.343,102.127 268.51,100.793 269,99.5C 270.932,101.038 273.099,102.205 275.5,103C 273.381,103.098 271.714,103.931 270.5,105.5C 273.152,106.653 275.152,108.487 276.5,111C 278.988,112.462 281.655,113.462 284.5,114C 283.5,116.091 284.167,117.757 286.5,119C 285.944,119.383 285.611,119.883 285.5,120.5 Z"/></g>
<g><path style="opacity:1" fill="#dd316e" d="M 125.5,106.5 C 123.599,109.266 121.599,112.099 119.5,115C 116.691,116.323 114.025,117.823 111.5,119.5C 115.539,114.46 120.206,110.127 125.5,106.5 Z"/></g>
<g><path style="opacity:1" fill="#f90063" d="M 116.5,127.5 C 117.822,127.67 118.989,127.337 120,126.5C 120.333,127.167 120.667,127.833 121,128.5C 121.667,127.167 122.333,127.167 123,128.5C 123.667,191.833 123.667,255.167 123,318.5C 119.337,322.865 120.503,325.532 126.5,326.5C 126.291,327.086 125.957,327.586 125.5,328C 127.192,329.401 127.859,331.234 127.5,333.5C 125.022,332.117 122.355,331.117 119.5,330.5C 120.113,327.031 118.779,325.031 115.5,324.5C 113.713,321.846 112.046,319.013 110.5,316C 111.501,313.302 111.001,310.802 109,308.5C 108.833,253.497 108.333,198.497 107.5,143.5C 105.069,142.194 105.403,141.194 108.5,140.5C 109.167,139.167 109.833,137.833 110.5,136.5C 109.167,135.5 109.167,134.5 110.5,133.5C 109.624,132.749 108.624,132.249 107.5,132C 109.652,129.531 111.152,126.698 112,123.5C 113.371,125.041 114.871,126.375 116.5,127.5 Z"/></g>
<g><path style="opacity:1" fill="#f90012" d="M 286.5,124.5 C 288.255,125.904 290.255,126.904 292.5,127.5C 293.5,127.833 294.167,128.5 294.5,129.5C 294.5,130.833 294.5,132.167 294.5,133.5C 295.552,133.351 296.552,133.517 297.5,134C 299.677,136.344 302.01,138.511 304.5,140.5C 304.5,141.167 304.5,141.833 304.5,142.5C 303.542,142.047 302.708,141.381 302,140.5C 300.728,143.222 298.561,144.556 295.5,144.5C 295.5,197.167 295.5,249.833 295.5,302.5C 292.5,302.167 291.167,303.5 291.5,306.5C 293.199,306.66 294.866,306.494 296.5,306C 300.585,302.241 302.251,302.741 301.5,307.5C 300.127,307.343 298.793,307.51 297.5,308C 298.38,309.356 298.714,310.856 298.5,312.5C 297.5,312.5 296.5,312.5 295.5,312.5C 295.5,313.5 295.5,314.5 295.5,315.5C 294.5,315.5 293.5,315.5 292.5,315.5C 292.5,316.5 292.5,317.5 292.5,318.5C 290.678,318.831 289.011,319.498 287.5,320.5C 286.279,319.972 285.113,319.305 284,318.5C 283.833,286.5 283.667,254.5 283.5,222.5C 283.504,190.12 284.17,157.954 285.5,126C 284.288,124.893 284.621,124.393 286.5,124.5 Z"/></g>
<g><path style="opacity:1" fill="#f80269" d="M 141.5,91.5 C 142.167,91.5 142.833,91.5 143.5,91.5C 144.491,97.979 144.824,104.646 144.5,111.5C 143.941,107.966 142.941,104.466 141.5,101C 141.833,100.667 142.167,100.333 142.5,100C 140.519,99.3946 140.185,98.3946 141.5,97C 139.59,97.6243 137.59,98.4576 135.5,99.5C 134.614,100.325 134.281,101.325 134.5,102.5C 133.167,102.5 131.833,102.5 130.5,102.5C 130.263,103.791 130.596,104.791 131.5,105.5C 133.436,107.243 133.77,109.243 132.5,111.5C 130.679,110.272 129.679,108.606 129.5,106.5C 128.5,106.5 127.5,106.5 126.5,106.5C 126.286,108.144 126.62,109.644 127.5,111C 125.087,113.663 123.587,116.83 123,120.5C 121.684,121.974 120.684,123.641 120,125.5C 117.851,124.16 116.684,124.827 116.5,127.5C 114.871,126.375 113.371,125.041 112,123.5C 111.152,126.698 109.652,129.531 107.5,132C 108.624,132.249 109.624,132.749 110.5,133.5C 109.167,134.5 109.167,135.5 110.5,136.5C 109.833,137.833 109.167,139.167 108.5,140.5C 105.403,141.194 105.069,142.194 107.5,143.5C 108.333,198.497 108.833,253.497 109,308.5C 111.001,310.802 111.501,313.302 110.5,316C 112.046,319.013 113.713,321.846 115.5,324.5C 118.779,325.031 120.113,327.031 119.5,330.5C 117.589,329.925 115.922,328.925 114.5,327.5C 113.71,326.599 112.71,325.932 111.5,325.5C 109.806,323.139 107.806,321.139 105.5,319.5C 104.493,316.642 102.827,314.142 100.5,312C 101.025,311.308 101.692,310.808 102.5,310.5C 103.939,312.36 105.605,314.027 107.5,315.5C 108.583,314.635 108.749,313.635 108,312.5C 105.763,310.719 103.763,308.719 102,306.5C 101.383,305.551 101.549,304.718 102.5,304C 100.359,304.086 98.0257,303.919 95.5,303.5C 94.5349,301.035 93.5349,298.535 92.5,296C 94.6424,294.177 95.9758,291.843 96.5,289C 95.5134,246.186 95.1801,203.353 95.5,160.5C 93.6536,160.778 92.3202,160.111 91.5,158.5C 92.1922,155.877 93.6922,153.877 96,152.5C 96.6831,148.761 96.1831,145.594 94.5,143C 95.549,142.508 96.549,142.674 97.5,143.5C 98.3816,142.24 99.3816,141.074 100.5,140C 99.1772,139.184 98.5106,138.017 98.5,136.5C 100.025,134.784 101.025,132.784 101.5,130.5C 104.123,126.209 107.456,122.543 111.5,119.5C 114.025,117.823 116.691,116.323 119.5,115C 121.599,112.099 123.599,109.266 125.5,106.5C 130.204,100.795 135.537,95.7949 141.5,91.5 Z"/></g>
<g><path style="opacity:1" fill="#d53b3e" d="M 294.5,129.5 C 298.566,132.563 301.899,136.229 304.5,140.5C 302.01,138.511 299.677,136.344 297.5,134C 296.552,133.517 295.552,133.351 294.5,133.5C 294.5,132.167 294.5,130.833 294.5,129.5 Z"/></g>
<g><path style="opacity:1" fill="#fad8f2" d="M 96.5,135.5 C 94.8532,138.473 92.8532,141.14 90.5,143.5C 90.238,142.022 90.5713,140.689 91.5,139.5C 92.6046,137.389 94.2712,136.055 96.5,135.5 Z"/></g>
<g><path style="opacity:1" fill="#fad9ea" d="M 161.5,101.5 C 160.32,118.773 163.32,135.106 170.5,150.5C 170.672,151.492 170.338,152.158 169.5,152.5C 165.071,148.407 161.404,143.741 158.5,138.5C 160.394,139.048 162.06,140.048 163.5,141.5C 163.833,140.5 164.167,139.5 164.5,138.5C 163.232,135.686 162.399,132.686 162,129.5C 161.25,128.874 160.416,128.374 159.5,128C 159.576,119.109 160.242,110.275 161.5,101.5 Z"/></g>
<g><path style="opacity:1" fill="#ca3b37" d="M 304.5,140.5 C 306.914,141.911 308.581,143.911 309.5,146.5C 307.833,145.167 306.167,143.833 304.5,142.5C 304.5,141.833 304.5,141.167 304.5,140.5 Z"/></g>
<g><path style="opacity:1" fill="#d73464" d="M 165.5,89.5 C 163.021,99.358 162.187,109.358 163,119.5C 164.04,126.309 165.373,132.976 167,139.5C 170.034,142.514 171.201,146.181 170.5,150.5C 163.32,135.106 160.32,118.773 161.5,101.5C 162.235,97.1945 163.568,93.1945 165.5,89.5 Z"/></g>
<g><path style="opacity:1" fill="#f9000c" d="M 304.5,142.5 C 306.167,143.833 307.833,145.167 309.5,146.5C 309.511,148.017 310.177,149.184 311.5,150C 309.755,151.692 309.422,153.525 310.5,155.5C 311.197,153.615 312.197,153.282 313.5,154.5C 314.421,156.777 315.087,159.11 315.5,161.5C 311.243,158.749 307.41,155.416 304,151.5C 303.431,154.014 303.931,156.348 305.5,158.5C 304.592,164.125 304.258,169.792 304.5,175.5C 305.5,175.5 306.5,175.5 307.5,175.5C 307.833,212.506 307.5,249.506 306.5,286.5C 303.673,289.36 304.339,291.36 308.5,292.5C 309.386,291.675 309.719,290.675 309.5,289.5C 310.822,289.67 311.989,289.337 313,288.5C 313.417,289.756 314.25,290.423 315.5,290.5C 314.27,292.297 313.604,294.297 313.5,296.5C 311.115,298.884 309.115,301.55 307.5,304.5C 306.5,304.5 305.5,304.5 304.5,304.5C 304.5,305.5 304.5,306.5 304.5,307.5C 303.5,307.5 302.5,307.5 301.5,307.5C 302.251,302.741 300.585,302.241 296.5,306C 294.866,306.494 293.199,306.66 291.5,306.5C 291.167,303.5 292.5,302.167 295.5,302.5C 295.5,249.833 295.5,197.167 295.5,144.5C 298.561,144.556 300.728,143.222 302,140.5C 302.708,141.381 303.542,142.047 304.5,142.5 Z"/></g>
<g><path style="opacity:1" fill="#da245b" d="M 155.5,134.5 C 156.488,135.795 157.488,137.128 158.5,138.5C 161.404,143.741 165.071,148.407 169.5,152.5C 165.537,149.871 161.871,146.871 158.5,143.5C 158.611,141.352 157.944,141.019 156.5,142.5C 155.52,139.914 155.187,137.247 155.5,134.5 Z"/></g>
<g><path style="opacity:1" fill="#d54982" d="M 101.5,130.5 C 101.025,132.784 100.025,134.784 98.5,136.5C 94.9358,140.614 91.6025,144.948 88.5,149.5C 87.1825,151.751 85.5158,153.751 83.5,155.5C 84.9754,151.019 87.3088,147.019 90.5,143.5C 92.8532,141.14 94.8532,138.473 96.5,135.5C 98.3947,134.027 100.061,132.36 101.5,130.5 Z"/></g>
<g><path style="opacity:1" fill="#f80004" d="M 315.5,161.5 C 315.45,163.59 316.45,164.923 318.5,165.5C 319.167,168.167 319.833,170.833 320.5,173.5C 321.086,173.291 321.586,172.957 322,172.5C 323.405,173.731 324.571,175.064 325.5,176.5C 326.567,178.964 327.9,181.297 329.5,183.5C 333.485,201.904 335.152,220.571 334.5,239.5C 334.5,240.167 334.5,240.833 334.5,241.5C 333.599,242.29 332.932,243.29 332.5,244.5C 328.626,250.624 327.126,257.291 328,264.5C 325.131,268.652 323.631,273.318 323.5,278.5C 323.5,278.833 323.5,279.167 323.5,279.5C 320.917,280.985 319.584,283.318 319.5,286.5C 319.5,286.833 319.5,287.167 319.5,287.5C 317.596,287.738 316.262,288.738 315.5,290.5C 314.25,290.423 313.417,289.756 313,288.5C 311.989,289.337 310.822,289.67 309.5,289.5C 309.719,290.675 309.386,291.675 308.5,292.5C 304.339,291.36 303.673,289.36 306.5,286.5C 307.5,249.506 307.833,212.506 307.5,175.5C 306.5,175.5 305.5,175.5 304.5,175.5C 304.258,169.792 304.592,164.125 305.5,158.5C 303.931,156.348 303.431,154.014 304,151.5C 307.41,155.416 311.243,158.749 315.5,161.5 Z"/></g>
<g><path style="opacity:1" fill="#f9006f" d="M 98.5,136.5 C 98.5106,138.017 99.1772,139.184 100.5,140C 99.3816,141.074 98.3816,142.24 97.5,143.5C 96.549,142.674 95.549,142.508 94.5,143C 96.1831,145.594 96.6831,148.761 96,152.5C 93.6922,153.877 92.1922,155.877 91.5,158.5C 92.3202,160.111 93.6536,160.778 95.5,160.5C 95.1801,203.353 95.5134,246.186 96.5,289C 95.9758,291.843 94.6424,294.177 92.5,296C 93.5349,298.535 94.5349,301.035 95.5,303.5C 98.0257,303.919 100.359,304.086 102.5,304C 101.549,304.718 101.383,305.551 102,306.5C 103.763,308.719 105.763,310.719 108,312.5C 108.749,313.635 108.583,314.635 107.5,315.5C 105.605,314.027 103.939,312.36 102.5,310.5C 101.692,310.808 101.025,311.308 100.5,312C 102.827,314.142 104.493,316.642 105.5,319.5C 103.167,317.833 101.167,315.833 99.5,313.5C 96.8005,308.936 93.8005,304.436 90.5,300C 90.8333,299.667 91.1667,299.333 91.5,299C 89.7183,298.186 88.2183,297.019 87,295.5C 86.3333,294.5 86.3333,293.5 87,292.5C 87.7175,293.451 88.5509,293.617 89.5,293C 88.2283,291.693 87.2283,290.193 86.5,288.5C 85.7189,289.729 85.2189,291.062 85,292.5C 83,289.167 81,285.833 79,282.5C 78.51,281.207 78.3433,279.873 78.5,278.5C 79.7633,274.209 79.4299,269.876 77.5,265.5C 77.8457,264.304 78.3457,264.304 79,265.5C 79.9057,263.256 80.4057,260.923 80.5,258.5C 80.4251,235.219 80.4251,211.886 80.5,188.5C 79.5963,185.289 78.5963,182.123 77.5,179C 77.8852,176.816 78.8852,174.982 80.5,173.5C 79.6123,171.845 79.1123,170.178 79,168.5C 81.9901,167.802 84.8234,166.135 87.5,163.5C 87.1543,162.304 86.6543,162.304 86,163.5C 85.5045,161.527 85.3379,159.527 85.5,157.5C 86.8333,157.5 88.1667,157.5 89.5,157.5C 89.6715,155.508 89.0049,153.842 87.5,152.5C 88.1272,151.583 88.4606,150.583 88.5,149.5C 91.6025,144.948 94.9358,140.614 98.5,136.5 Z"/></g>
<g><path style="opacity:1" fill="#e81613" d="M 309.5,146.5 C 316.335,154.155 321.668,162.821 325.5,172.5C 325.5,173.833 325.5,175.167 325.5,176.5C 324.571,175.064 323.405,173.731 322,172.5C 321.586,172.957 321.086,173.291 320.5,173.5C 319.833,170.833 319.167,168.167 318.5,165.5C 316.45,164.923 315.45,163.59 315.5,161.5C 315.087,159.11 314.421,156.777 313.5,154.5C 312.197,153.282 311.197,153.615 310.5,155.5C 309.422,153.525 309.755,151.692 311.5,150C 310.177,149.184 309.511,148.017 309.5,146.5 Z"/></g>
<g><path style="opacity:1" fill="#d73c3d" d="M 325.5,172.5 C 327.642,175.8 328.975,179.467 329.5,183.5C 327.9,181.297 326.567,178.964 325.5,176.5C 325.5,175.167 325.5,173.833 325.5,172.5 Z"/></g>
<g><path style="opacity:1" fill="#fad8f3" d="M 76.5,166.5 C 75.5014,169.162 74.5014,171.828 73.5,174.5C 72.6873,176.261 71.6873,177.928 70.5,179.5C 70.5858,178.504 70.2524,177.671 69.5,177C 71.0037,175.509 71.8371,173.676 72,171.5C 73.0669,169.308 74.5669,167.642 76.5,166.5 Z"/></g>
<g><path style="opacity:1" fill="#f70276" d="M 88.5,149.5 C 88.4606,150.583 88.1272,151.583 87.5,152.5C 89.0049,153.842 89.6715,155.508 89.5,157.5C 88.1667,157.5 86.8333,157.5 85.5,157.5C 85.3379,159.527 85.5045,161.527 86,163.5C 86.6543,162.304 87.1543,162.304 87.5,163.5C 84.8234,166.135 81.9901,167.802 79,168.5C 79.1123,170.178 79.6123,171.845 80.5,173.5C 78.8852,174.982 77.8852,176.816 77.5,179C 78.5963,182.123 79.5963,185.289 80.5,188.5C 80.4251,211.886 80.4251,235.219 80.5,258.5C 80.4057,260.923 79.9057,263.256 79,265.5C 78.3457,264.304 77.8457,264.304 77.5,265.5C 79.4299,269.876 79.7633,274.209 78.5,278.5C 76.9256,278.063 75.7589,277.063 75,275.5C 75.0284,271.277 73.6951,267.611 71,264.5C 69.0782,255.277 66.9115,246.277 64.5,237.5C 64.1681,227.478 64.5015,217.478 65.5,207.5C 67.4365,196.192 70.1031,185.192 73.5,174.5C 74.5014,171.828 75.5014,169.162 76.5,166.5C 78.2892,162.428 80.6225,158.761 83.5,155.5C 85.5158,153.751 87.1825,151.751 88.5,149.5 Z"/></g>
<g><path style="opacity:1" fill="#dd2a42" d="M 216.5,178.5 C 224.039,178.093 231.372,178.76 238.5,180.5C 239.978,180.238 241.311,180.571 242.5,181.5C 243.188,182.855 244.188,183.855 245.5,184.5C 245.557,185.609 245.89,186.609 246.5,187.5C 244.391,186.609 242.391,185.442 240.5,184C 237.647,182.57 234.647,181.737 231.5,181.5C 226.41,179.252 221.076,178.919 215.5,180.5C 215.833,179.833 216.167,179.167 216.5,178.5 Z"/></g>
<g><path style="opacity:1" fill="#e81d49" d="M 191.5,177.5 C 193.176,178.183 193.843,179.517 193.5,181.5C 196.589,181.906 199.255,183.24 201.5,185.5C 202.386,184.675 202.719,183.675 202.5,182.5C 206.744,181.357 211.077,180.69 215.5,180.5C 209.451,182.522 204.117,185.855 199.5,190.5C 197.313,188.578 194.98,186.912 192.5,185.5C 188.779,182.973 184.779,180.973 180.5,179.5C 181.833,179.5 183.167,179.5 184.5,179.5C 187.421,179.146 189.754,180.146 191.5,182.5C 191.833,182.333 192.167,182.167 192.5,182C 191.874,181.25 191.374,180.416 191,179.5C 187.59,178.126 187.757,177.459 191.5,177.5 Z"/></g>
<g><path style="opacity:1" fill="#f9f8f9" d="M 231.5,181.5 C 234.647,181.737 237.647,182.57 240.5,184C 242.391,185.442 244.391,186.609 246.5,187.5C 249.215,190.214 251.549,193.214 253.5,196.5C 254.59,201.21 255.59,205.876 256.5,210.5C 256.071,214.831 255.738,219.165 255.5,223.5C 254.703,227.223 253.703,230.89 252.5,234.5C 246.006,245.006 238.339,254.672 229.5,263.5C 225.141,267.528 220.807,271.528 216.5,275.5C 212.949,277.111 209.949,279.444 207.5,282.5C 206.833,282.5 206.167,282.5 205.5,282.5C 204.178,282.33 203.011,282.663 202,283.5C 200.143,281.369 197.977,280.869 195.5,282C 193.095,280.004 190.595,278.17 188,276.5C 187.667,274.833 187.333,273.167 187,271.5C 184.399,274.304 182.899,273.971 182.5,270.5C 180.5,270.167 178.5,269.833 176.5,269.5C 175.946,265.899 173.613,263.232 169.5,261.5C 166.785,258.6 164.619,255.267 163,251.5C 160.36,250.344 157.86,249.011 155.5,247.5C 155.167,247.5 154.833,247.5 154.5,247.5C 151.691,242.555 148.857,237.555 146,232.5C 144.57,229.647 143.737,226.647 143.5,223.5C 142.526,217.528 142.359,211.528 143,205.5C 144.511,202.204 145.677,198.871 146.5,195.5C 148.812,191.188 152.145,187.855 156.5,185.5C 159.471,185.565 162.138,184.731 164.5,183C 174.082,181.777 183.415,182.61 192.5,185.5C 193.938,190.57 197.272,192.403 202.5,191C 204.833,189.333 206.833,187.333 208.5,185C 209.899,184.405 211.232,184.572 212.5,185.5C 213.386,184.675 213.719,183.675 213.5,182.5C 219.518,181.984 225.518,181.651 231.5,181.5 Z"/></g>
<g><path style="opacity:1" fill="#f9d1e1" d="M 180.5,179.5 C 184.779,180.973 188.779,182.973 192.5,185.5C 183.415,182.61 174.082,181.777 164.5,183C 162.138,184.731 159.471,185.565 156.5,185.5C 158.364,183.986 160.364,182.653 162.5,181.5C 168.333,179.768 174.333,179.101 180.5,179.5 Z"/></g>
<g><path style="opacity:1" fill="#dd3165" d="M 162.5,181.5 C 160.364,182.653 158.364,183.986 156.5,185.5C 152.145,187.855 148.812,191.188 146.5,195.5C 143.89,198.632 142.223,202.299 141.5,206.5C 141.167,206.5 140.833,206.5 140.5,206.5C 140.5,204.833 140.5,203.167 140.5,201.5C 143.283,197.529 145.45,193.195 147,188.5C 148.356,187.62 149.856,187.286 151.5,187.5C 151.5,186.5 151.5,185.5 151.5,184.5C 153.099,184.768 154.432,184.434 155.5,183.5C 157.515,182.076 159.848,181.41 162.5,181.5 Z"/></g>
<g><path style="opacity:1" fill="#fad4df" d="M 231.5,181.5 C 225.518,181.651 219.518,181.984 213.5,182.5C 213.719,183.675 213.386,184.675 212.5,185.5C 211.232,184.572 209.899,184.405 208.5,185C 206.833,187.333 204.833,189.333 202.5,191C 197.272,192.403 193.938,190.57 192.5,185.5C 194.98,186.912 197.313,188.578 199.5,190.5C 204.117,185.855 209.451,182.522 215.5,180.5C 221.076,178.919 226.41,179.252 231.5,181.5 Z"/></g>
<g><path style="opacity:1" fill="#d83681" d="M 73.5,174.5 C 70.1031,185.192 67.4365,196.192 65.5,207.5C 64.5015,217.478 64.1681,227.478 64.5,237.5C 65.0916,240.127 65.4249,242.794 65.5,245.5C 65.1667,245.5 64.8333,245.5 64.5,245.5C 64.7373,244.209 64.404,243.209 63.5,242.5C 60.8708,220.912 63.2042,199.912 70.5,179.5C 71.6873,177.928 72.6873,176.261 73.5,174.5 Z"/></g>
<g><path style="opacity:1" fill="#dd3244" d="M 246.5,187.5 C 250.954,188.952 253.621,191.952 254.5,196.5C 254.167,196.5 253.833,196.5 253.5,196.5C 251.549,193.214 249.215,190.214 246.5,187.5 Z"/></g>
<g><path style="opacity:1" fill="#f9e0f6" d="M 70.5,179.5 C 63.2042,199.912 60.8708,220.912 63.5,242.5C 58.9355,224.269 59.9355,206.269 66.5,188.5C 66.3201,187.446 65.9867,186.446 65.5,185.5C 67.1719,183.328 68.8386,181.328 70.5,179.5 Z"/></g>
<g><path style="opacity:1" fill="#f80156" d="M 142.5,230.5 C 145.029,234.547 147.363,238.881 149.5,243.5C 151.015,245.082 152.681,246.416 154.5,247.5C 154.833,247.5 155.167,247.5 155.5,247.5C 158.465,252.789 162.132,257.456 166.5,261.5C 166.733,263.062 167.4,264.395 168.5,265.5C 165.496,264.243 162.663,262.577 160,260.5C 159.316,259.216 159.483,258.049 160.5,257C 158.17,255.477 155.836,254.977 153.5,255.5C 152.262,251.689 151.596,251.689 151.5,255.5C 150.167,255.5 148.833,255.5 147.5,255.5C 148.146,282.658 147.479,309.658 145.5,336.5C 147.601,339.27 150.268,341.27 153.5,342.5C 152.975,343.192 152.308,343.692 151.5,344C 154.823,345.04 157.823,346.54 160.5,348.5C 153.322,345.547 145.989,342.714 138.5,340C 140.087,339.138 141.754,338.471 143.5,338C 141.795,335.572 139.795,335.072 137.5,336.5C 136.778,336.082 136.278,335.416 136,334.5C 135.174,299.458 135.34,264.458 136.5,229.5C 132.673,220.247 132.506,210.914 136,201.5C 136.309,202.766 136.809,203.933 137.5,205C 137.643,207.041 137.309,209.208 136.5,211.5C 137.829,217.428 138.829,223.428 139.5,229.5C 140.417,230.127 141.417,230.461 142.5,230.5 Z"/></g>
<g><path style="opacity:1" fill="#f9001f" d="M 260.5,105.5 C 260.414,106.496 260.748,107.329 261.5,108C 263.91,108.6 265.91,109.766 267.5,111.5C 266.861,185.729 266.861,260.063 267.5,334.5C 268.5,334.5 269.5,334.5 270.5,334.5C 270.215,332.712 270.548,331.045 271.5,329.5C 274.845,326.327 278.845,324.994 283.5,325.5C 280.157,326.32 277.157,327.82 274.5,330C 274.833,330.333 275.167,330.667 275.5,331C 272.928,331.432 271.594,332.932 271.5,335.5C 269.435,335.517 267.435,335.85 265.5,336.5C 264.305,336.678 263.138,337.011 262,337.5C 260.146,335.586 258.146,334.92 256,335.5C 255.667,309.167 255.333,282.833 255,256.5C 254.308,255.975 253.808,255.308 253.5,254.5C 256.393,248.896 256.06,243.562 252.5,238.5C 252.5,237.167 252.5,235.833 252.5,234.5C 253.458,234.047 254.292,233.381 255,232.5C 258.527,222.677 260.527,212.677 261,202.5C 259.853,203.458 258.853,203.125 258,201.5C 257.517,200.552 257.351,199.552 257.5,198.5C 257.674,196.139 258.007,193.806 258.5,191.5C 256.41,191.55 255.077,190.55 254.5,188.5C 256.164,184.704 255.83,181.204 253.5,178C 254.754,166.94 255.421,155.44 255.5,143.5C 255.484,132.635 255.15,121.801 254.5,111C 256.314,108.933 258.314,107.099 260.5,105.5 Z"/></g>
<g><path style="opacity:1" fill="#fadbf2" d="M 146.5,195.5 C 145.677,198.871 144.511,202.204 143,205.5C 142.359,211.528 142.526,217.528 143.5,223.5C 142.778,223.082 142.278,222.416 142,221.5C 141.501,216.511 141.334,211.511 141.5,206.5C 142.223,202.299 143.89,198.632 146.5,195.5 Z"/></g>
<g><path style="opacity:1" fill="#de2f3e" d="M 254.5,196.5 C 255.778,196.782 256.778,197.449 257.5,198.5C 257.351,199.552 257.517,200.552 258,201.5C 258.853,203.125 259.853,203.458 261,202.5C 260.527,212.677 258.527,222.677 255,232.5C 254.292,233.381 253.458,234.047 252.5,234.5C 253.703,230.89 254.703,227.223 255.5,223.5C 258.345,214.49 258.012,205.49 254.5,196.5 Z"/></g>
<g><path style="opacity:1" fill="#fad7df" d="M 253.5,196.5 C 253.833,196.5 254.167,196.5 254.5,196.5C 258.012,205.49 258.345,214.49 255.5,223.5C 255.738,219.165 256.071,214.831 256.5,210.5C 255.59,205.876 254.59,201.21 253.5,196.5 Z"/></g>
<g><path style="opacity:1" fill="#d32d25" d="M 329.5,183.5 C 329.833,183.5 330.167,183.5 330.5,183.5C 336.321,202 337.654,220.667 334.5,239.5C 335.152,220.571 333.485,201.904 329.5,183.5 Z"/></g>
<g><path style="opacity:1" fill="#fadedd" d="M 330.5,183.5 C 332.129,185.858 333.295,188.524 334,191.5C 336.215,202.073 337.715,212.74 338.5,223.5C 337.875,232.914 336.708,242.248 335,251.5C 334.617,252.056 334.117,252.389 333.5,252.5C 333.423,248.785 333.756,245.119 334.5,241.5C 334.5,240.833 334.5,240.167 334.5,239.5C 337.654,220.667 336.321,202 330.5,183.5 Z"/></g>
<g><path style="opacity:1" fill="#db3e6d" d="M 140.5,206.5 C 140.833,206.5 141.167,206.5 141.5,206.5C 141.334,211.511 141.501,216.511 142,221.5C 142.278,222.416 142.778,223.082 143.5,223.5C 143.737,226.647 144.57,229.647 146,232.5C 148.857,237.555 151.691,242.555 154.5,247.5C 152.681,246.416 151.015,245.082 149.5,243.5C 147.363,238.881 145.029,234.547 142.5,230.5C 141.984,227.101 141.15,223.768 140,220.5C 139.227,215.748 139.393,211.081 140.5,206.5 Z"/></g>
<g><path style="opacity:1" fill="#f8c7e9" d="M 64.5,245.5 C 64.8333,245.5 65.1667,245.5 65.5,245.5C 65.3424,248.902 65.6758,252.236 66.5,255.5C 64.5977,252.663 63.931,249.329 64.5,245.5 Z"/></g>
<g><path style="opacity:1" fill="#f90050" d="M 168.5,265.5 C 170.798,266.797 172.798,268.463 174.5,270.5C 173.735,270.923 172.902,271.257 172,271.5C 169.312,269.7 166.479,268.367 163.5,267.5C 164.145,292.993 163.478,318.326 161.5,343.5C 163.078,344.298 164.744,344.798 166.5,345C 164.754,345.471 163.087,346.138 161.5,347C 162.737,347.232 163.737,347.732 164.5,348.5C 163.167,348.5 161.833,348.5 160.5,348.5C 157.823,346.54 154.823,345.04 151.5,344C 152.308,343.692 152.975,343.192 153.5,342.5C 150.268,341.27 147.601,339.27 145.5,336.5C 147.479,309.658 148.146,282.658 147.5,255.5C 148.833,255.5 150.167,255.5 151.5,255.5C 151.596,251.689 152.262,251.689 153.5,255.5C 155.836,254.977 158.17,255.477 160.5,257C 159.483,258.049 159.316,259.216 160,260.5C 162.663,262.577 165.496,264.243 168.5,265.5 Z"/></g>
<g><path style="opacity:1" fill="#e31714" d="M 332.5,244.5 C 331.994,249.523 331.327,254.523 330.5,259.5C 329.537,266.409 327.204,272.743 323.5,278.5C 323.631,273.318 325.131,268.652 328,264.5C 327.126,257.291 328.626,250.624 332.5,244.5 Z"/></g>
<g><path style="opacity:1" fill="#cc2d22" d="M 334.5,241.5 C 333.756,245.119 333.423,248.785 333.5,252.5C 332.341,254.855 331.341,257.188 330.5,259.5C 331.327,254.523 331.994,249.523 332.5,244.5C 332.932,243.29 333.599,242.29 334.5,241.5 Z"/></g>
<g><path style="opacity:1" fill="#fae0f1" d="M 155.5,247.5 C 157.86,249.011 160.36,250.344 163,251.5C 164.619,255.267 166.785,258.6 169.5,261.5C 173.613,263.232 175.946,265.899 176.5,269.5C 173.455,266.453 170.122,263.787 166.5,261.5C 162.132,257.456 158.465,252.789 155.5,247.5 Z"/></g>
<g><path style="opacity:1" fill="#f90024" d="M 252.5,238.5 C 256.06,243.562 256.393,248.896 253.5,254.5C 253.808,255.308 254.308,255.975 255,256.5C 255.333,282.833 255.667,309.167 256,335.5C 258.146,334.92 260.146,335.586 262,337.5C 263.138,337.011 264.305,336.678 265.5,336.5C 263.375,338.067 261.042,339.4 258.5,340.5C 255.57,341.578 252.57,342.078 249.5,342C 248.257,340.846 247.257,339.512 246.5,338C 243.957,337.86 241.623,337.194 239.5,336C 240.552,334.881 241.719,334.381 243,334.5C 243.828,308.261 243.661,282.094 242.5,256C 243.305,254.887 243.972,253.721 244.5,252.5C 247.198,247.761 249.865,243.094 252.5,238.5 Z"/></g>
<g><path style="opacity:1" fill="#f9002a" d="M 244.5,252.5 C 243.972,253.721 243.305,254.887 242.5,256C 243.661,282.094 243.828,308.261 243,334.5C 241.719,334.381 240.552,334.881 239.5,336C 241.623,337.194 243.957,337.86 246.5,338C 247.257,339.512 248.257,340.846 249.5,342C 252.57,342.078 255.57,341.578 258.5,340.5C 257.306,341.272 256.306,342.272 255.5,343.5C 249.943,345.24 244.276,346.573 238.5,347.5C 235.008,346.886 232.341,345.72 230.5,344C 229.884,342.6 229.551,341.1 229.5,339.5C 230.751,327.223 231.418,314.89 231.5,302.5C 231.5,291.328 231.167,280.328 230.5,269.5C 230.325,267.379 230.659,265.379 231.5,263.5C 235.478,262.189 238.144,259.522 239.5,255.5C 241.121,254.305 242.787,253.305 244.5,252.5 Z"/></g>
<g><path style="opacity:1" fill="#dd2c42" d="M 252.5,234.5 C 252.5,235.833 252.5,237.167 252.5,238.5C 249.865,243.094 247.198,247.761 244.5,252.5C 242.787,253.305 241.121,254.305 239.5,255.5C 238.144,259.522 235.478,262.189 231.5,263.5C 230.833,263.5 230.167,263.5 229.5,263.5C 238.339,254.672 246.006,245.006 252.5,234.5 Z"/></g>
<g><path style="opacity:1" fill="#f8024a" d="M 174.5,270.5 C 177.415,272.779 180.415,274.779 183.5,276.5C 188.268,279.42 192.934,282.586 197.5,286C 200.863,286.48 203.53,285.313 205.5,282.5C 206.167,282.5 206.833,282.5 207.5,282.5C 206.699,284.042 206.366,285.708 206.5,287.5C 204.354,287.878 202.187,288.212 200,288.5C 197.779,288.607 195.946,287.94 194.5,286.5C 192.349,284.711 189.849,283.378 187,282.5C 185.316,284.701 183.316,285.367 181,284.5C 180.338,287.417 178.505,288.75 175.5,288.5C 175.333,309.169 175.5,329.836 176,350.5C 176.717,351.044 177.217,351.711 177.5,352.5C 174.544,351.863 171.544,351.363 168.5,351C 166.934,350.392 165.6,349.558 164.5,348.5C 163.737,347.732 162.737,347.232 161.5,347C 163.087,346.138 164.754,345.471 166.5,345C 164.744,344.798 163.078,344.298 161.5,343.5C 163.478,318.326 164.145,292.993 163.5,267.5C 166.479,268.367 169.312,269.7 172,271.5C 172.902,271.257 173.735,270.923 174.5,270.5 Z"/></g>
<g><path style="opacity:1" fill="#d23660" d="M 166.5,261.5 C 170.122,263.787 173.455,266.453 176.5,269.5C 179.139,271.473 181.473,273.806 183.5,276.5C 180.415,274.779 177.415,272.779 174.5,270.5C 172.798,268.463 170.798,266.797 168.5,265.5C 167.4,264.395 166.733,263.062 166.5,261.5 Z"/></g>
<g><path style="opacity:1" fill="#cf3652" d="M 229.5,263.5 C 226.446,268.887 222.113,272.887 216.5,275.5C 220.807,271.528 225.141,267.528 229.5,263.5 Z"/></g>
<g><path style="opacity:1" fill="#f90032" d="M 230.5,269.5 C 231.167,280.328 231.5,291.328 231.5,302.5C 231.418,314.89 230.751,327.223 229.5,339.5C 229.551,341.1 229.884,342.6 230.5,344C 232.341,345.72 235.008,346.886 238.5,347.5C 236.565,348.15 234.565,348.483 232.5,348.5C 229.545,347.841 226.545,347.508 223.5,347.5C 223.853,349.635 223.02,350.968 221,351.5C 217.895,350.633 214.728,350.299 211.5,350.5C 211.5,329.833 211.5,309.167 211.5,288.5C 210.448,288.649 209.448,288.483 208.5,288C 210.433,287.749 212.266,287.249 214,286.5C 215.101,288.394 216.434,289.061 218,288.5C 219.951,286.863 219.784,285.363 217.5,284C 218.5,283.667 219.5,283.333 220.5,283C 219.234,282.691 218.067,282.191 217,281.5C 216.667,281.833 216.333,282.167 216,282.5C 215.626,281.584 215.126,280.75 214.5,280C 218.954,275.026 224.287,271.526 230.5,269.5 Z"/></g>
<g><path style="opacity:1" fill="#fad4ef" d="M 66.5,256.5 C 69.9054,266.658 73.9054,276.658 78.5,286.5C 77.2652,286.279 76.2652,285.612 75.5,284.5C 72.4914,277.229 69.6581,269.895 67,262.5C 66.5045,260.527 66.3379,258.527 66.5,256.5 Z"/></g>
<g><path style="opacity:1" fill="#d83f60" d="M 216.5,275.5 C 214.051,278.556 211.051,280.889 207.5,282.5C 209.949,279.444 212.949,277.111 216.5,275.5 Z"/></g>
<g><path style="opacity:1" fill="#fae5ed" d="M 176.5,269.5 C 178.5,269.833 180.5,270.167 182.5,270.5C 182.899,273.971 184.399,274.304 187,271.5C 187.333,273.167 187.667,274.833 188,276.5C 190.595,278.17 193.095,280.004 195.5,282C 197.977,280.869 200.143,281.369 202,283.5C 203.011,282.663 204.178,282.33 205.5,282.5C 203.53,285.313 200.863,286.48 197.5,286C 192.934,282.586 188.268,279.42 183.5,276.5C 181.473,273.806 179.139,271.473 176.5,269.5 Z"/></g>
<g><path style="opacity:1" fill="#d23b3a" d="M 323.5,279.5 C 322.416,282.004 321.083,284.337 319.5,286.5C 319.584,283.318 320.917,280.985 323.5,279.5 Z"/></g>
<g><path style="opacity:1" fill="#f80143" d="M 194.5,286.5 C 191.834,286.933 189.168,287.433 186.5,288C 187.494,309.091 187.827,330.258 187.5,351.5C 191.502,352.937 195.669,353.604 200,353.5C 208.819,352.764 217.653,352.431 226.5,352.5C 226.5,352.833 226.5,353.167 226.5,353.5C 221.848,353.998 217.181,354.331 212.5,354.5C 200.698,355.026 189.031,354.359 177.5,352.5C 177.217,351.711 176.717,351.044 176,350.5C 175.5,329.836 175.333,309.169 175.5,288.5C 178.505,288.75 180.338,287.417 181,284.5C 183.316,285.367 185.316,284.701 187,282.5C 189.849,283.378 192.349,284.711 194.5,286.5 Z"/></g>
<g><path style="opacity:1" fill="#f9003b" d="M 229.5,263.5 C 230.167,263.5 230.833,263.5 231.5,263.5C 230.659,265.379 230.325,267.379 230.5,269.5C 224.287,271.526 218.954,275.026 214.5,280C 215.126,280.75 215.626,281.584 216,282.5C 216.333,282.167 216.667,281.833 217,281.5C 218.067,282.191 219.234,282.691 220.5,283C 219.5,283.333 218.5,283.667 217.5,284C 219.784,285.363 219.951,286.863 218,288.5C 216.434,289.061 215.101,288.394 214,286.5C 212.266,287.249 210.433,287.749 208.5,288C 209.448,288.483 210.448,288.649 211.5,288.5C 211.5,309.167 211.5,329.833 211.5,350.5C 214.728,350.299 217.895,350.633 221,351.5C 223.02,350.968 223.853,349.635 223.5,347.5C 226.545,347.508 229.545,347.841 232.5,348.5C 230.63,349.956 228.63,351.289 226.5,352.5C 217.653,352.431 208.819,352.764 200,353.5C 195.669,353.604 191.502,352.937 187.5,351.5C 187.827,330.258 187.494,309.091 186.5,288C 189.168,287.433 191.834,286.933 194.5,286.5C 195.946,287.94 197.779,288.607 200,288.5C 202.187,288.212 204.354,287.878 206.5,287.5C 206.366,285.708 206.699,284.042 207.5,282.5C 211.051,280.889 214.051,278.556 216.5,275.5C 222.113,272.887 226.446,268.887 229.5,263.5 Z"/></g>
<g><path style="opacity:1" fill="#d02f30" d="M 319.5,287.5 C 317.467,290.523 315.467,293.523 313.5,296.5C 313.604,294.297 314.27,292.297 315.5,290.5C 316.262,288.738 317.596,287.738 319.5,287.5 Z"/></g>
<g><path style="opacity:1" fill="#e12777" d="M 64.5,237.5 C 66.9115,246.277 69.0782,255.277 71,264.5C 73.6951,267.611 75.0284,271.277 75,275.5C 75.7589,277.063 76.9256,278.063 78.5,278.5C 78.3433,279.873 78.51,281.207 79,282.5C 81,285.833 83,289.167 85,292.5C 85.2189,291.062 85.7189,289.729 86.5,288.5C 87.2283,290.193 88.2283,291.693 89.5,293C 88.5509,293.617 87.7175,293.451 87,292.5C 86.3333,293.5 86.3333,294.5 87,295.5C 88.2183,297.019 89.7183,298.186 91.5,299C 91.1667,299.333 90.8333,299.667 90.5,300C 93.8005,304.436 96.8005,308.936 99.5,313.5C 96.7279,310.306 93.7279,307.306 90.5,304.5C 86.4868,298.463 82.4868,292.463 78.5,286.5C 73.9054,276.658 69.9054,266.658 66.5,256.5C 66.5,256.167 66.5,255.833 66.5,255.5C 65.6758,252.236 65.3424,248.902 65.5,245.5C 65.4249,242.794 65.0916,240.127 64.5,237.5 Z"/></g>
<g><path style="opacity:1" fill="#f8e4f5" d="M 90.5,304.5 C 93.7279,307.306 96.7279,310.306 99.5,313.5C 101.167,315.833 103.167,317.833 105.5,319.5C 107.806,321.139 109.806,323.139 111.5,325.5C 108.961,324.149 106.294,322.982 103.5,322C 103.833,321.667 104.167,321.333 104.5,321C 102.552,320.017 100.718,318.85 99,317.5C 98.6667,317.833 98.3333,318.167 98,318.5C 96.3901,313.627 93.8901,308.961 90.5,304.5 Z"/></g>
<g><path style="opacity:1" fill="#de2024" d="M 307.5,304.5 C 301.861,312.139 295.194,318.806 287.5,324.5C 287.5,323.167 287.5,321.833 287.5,320.5C 289.011,319.498 290.678,318.831 292.5,318.5C 292.5,317.5 292.5,316.5 292.5,315.5C 293.5,315.5 294.5,315.5 295.5,315.5C 295.5,314.5 295.5,313.5 295.5,312.5C 296.5,312.5 297.5,312.5 298.5,312.5C 298.714,310.856 298.38,309.356 297.5,308C 298.793,307.51 300.127,307.343 301.5,307.5C 302.5,307.5 303.5,307.5 304.5,307.5C 304.5,306.5 304.5,305.5 304.5,304.5C 305.5,304.5 306.5,304.5 307.5,304.5 Z"/></g>
<g><path style="opacity:1" fill="#de2a35" d="M 287.5,324.5 C 282.722,328.94 277.388,332.607 271.5,335.5C 271.594,332.932 272.928,331.432 275.5,331C 275.167,330.667 274.833,330.333 274.5,330C 277.157,327.82 280.157,326.32 283.5,325.5C 284.708,324.766 286.041,324.433 287.5,324.5 Z"/></g>
<g><path style="opacity:1" fill="#db3f76" d="M 119.5,330.5 C 122.355,331.117 125.022,332.117 127.5,333.5C 127.5,334.167 127.5,334.833 127.5,335.5C 124.151,334.831 121.484,333.164 119.5,330.5 Z"/></g>
<g><path style="opacity:1" fill="#fadff3" d="M 114.5,327.5 C 115.922,328.925 117.589,329.925 119.5,330.5C 121.484,333.164 124.151,334.831 127.5,335.5C 132.833,338.833 138.167,342.167 143.5,345.5C 134.136,341.65 125.136,336.984 116.5,331.5C 115.295,330.423 114.628,329.09 114.5,327.5 Z"/></g>
<g><path style="opacity:1" fill="#d62539" d="M 271.5,335.5 C 269.795,337.192 267.795,338.525 265.5,339.5C 262.369,341.287 259.036,342.621 255.5,343.5C 256.306,342.272 257.306,341.272 258.5,340.5C 261.042,339.4 263.375,338.067 265.5,336.5C 267.435,335.85 269.435,335.517 271.5,335.5 Z"/></g>
<g><path style="opacity:1" fill="#db263f" d="M 255.5,343.5 C 246.598,348.484 236.931,351.484 226.5,352.5C 228.63,351.289 230.63,349.956 232.5,348.5C 234.565,348.483 236.565,348.15 238.5,347.5C 244.276,346.573 249.943,345.24 255.5,343.5 Z"/></g>
<g><path style="opacity:1" fill="#de3a67" d="M 127.5,335.5 C 130.23,335.473 132.73,336.14 135,337.5C 136.07,337.472 136.903,337.139 137.5,336.5C 139.795,335.072 141.795,335.572 143.5,338C 141.754,338.471 140.087,339.138 138.5,340C 145.989,342.714 153.322,345.547 160.5,348.5C 161.833,348.5 163.167,348.5 164.5,348.5C 165.6,349.558 166.934,350.392 168.5,351C 171.544,351.363 174.544,351.863 177.5,352.5C 189.031,354.359 200.698,355.026 212.5,354.5C 203.348,355.494 194.015,355.827 184.5,355.5C 176.476,354.195 168.476,352.695 160.5,351C 155.007,348.669 149.341,346.836 143.5,345.5C 138.167,342.167 132.833,338.833 127.5,335.5 Z"/></g>
<g><path style="opacity:1" fill="#fadce2" d="M 265.5,339.5 C 264.432,341.74 262.766,343.574 260.5,345C 256.71,345.23 253.376,346.563 250.5,349C 242.675,351.457 234.675,352.957 226.5,353.5C 226.5,353.167 226.5,352.833 226.5,352.5C 236.931,351.484 246.598,348.484 255.5,343.5C 259.036,342.621 262.369,341.287 265.5,339.5 Z"/></g>
<g><path style="opacity:1" fill="#fac8d9" d="M 226.5,353.5 C 226.082,354.222 225.416,354.722 224.5,355C 211.026,356.648 197.692,356.814 184.5,355.5C 194.015,355.827 203.348,355.494 212.5,354.5C 217.181,354.331 221.848,353.998 226.5,353.5 Z"/></g>
</svg>
