<svg xmlns="http://www.w3.org/2000/svg" width="523" height="431" viewBox="0 0 523 431" version="1.1">
    <path d="M 116 68.500 L 116 105 190.750 105.035 C 248.973 105.062, 266.827 105.363, 271.500 106.394 C 288.145 110.066, 303.034 121.794, 310.762 137.323 C 316.516 148.883, 316.364 146.668, 316.953 227.500 L 317.500 302.500 395.444 302.756 C 438.313 302.897, 473.764 302.636, 474.224 302.176 C 474.684 301.716, 466.272 292.892, 455.530 282.567 C 444.789 272.242, 436 263.025, 436 262.084 C 436 260.616, 471.724 225.097, 474.136 224.167 C 478.695 222.408, 468.608 222, 420.559 222 C 390.458 222, 365.876 221.608, 365.576 221.124 C 365.278 220.641, 366.708 218.729, 368.754 216.874 C 386.066 201.172, 393.795 190.373, 401.947 170.500 C 409.757 151.462, 409.948 123.841, 402.425 101.531 C 392.597 72.381, 367.812 47.433, 339 37.687 C 321.282 31.694, 327.826 32, 217.419 32 L 116 32 116 68.500 M 43.532 105.949 C 42.387 107.801, 42.962 263.132, 44.137 269.500 C 45.597 277.409, 47.827 285.717, 49.583 289.784 C 50.362 291.590, 51 293.553, 51 294.146 C 51 296.053, 59.562 312.399, 64.436 319.797 C 73.278 333.220, 89.720 348.949, 103.687 357.348 C 116.548 365.082, 133.504 371.426, 149.180 374.370 C 161.959 376.770, 261.113 376.802, 270.356 374.409 C 292.183 368.759, 308.402 352.731, 314.440 330.846 C 315.420 327.295, 316 321.066, 316 314.096 L 316 303 241.750 302.965 C 161.052 302.927, 160.782 302.910, 148.865 297.299 C 137.571 291.982, 126.576 281.287, 121.827 271 C 118.544 263.890, 118.038 262.339, 116.522 254.730 C 115.210 248.144, 114.980 236.176, 115.014 176.230 L 115.053 105.500 79.593 105.237 C 57.372 105.073, 43.909 105.338, 43.532 105.949 M 227 142.588 C 209.214 148.081, 197.978 162.773, 198.015 180.486 C 198.037 191.376, 201.785 200.447, 209.474 208.223 C 225.058 223.982, 250.615 223.673, 265.872 207.542 C 271.777 201.299, 274.641 195.679, 276.182 187.314 C 277.615 179.539, 275.990 169.092, 272.216 161.818 C 269.436 156.459, 260.780 147.931, 255.689 145.535 C 246.077 141.010, 235.595 139.933, 227 142.588" stroke="none" fill="#06544c" fill-rule="evenodd"/>
</svg>